<svg width="549" height="450" viewBox="0 0 549 450" fill="none" xmlns="http://www.w3.org/2000/svg">
<ellipse cx="286.048" cy="437.552" rx="143.905" ry="12.152" fill="#1D1A2A"/>
<path d="M185.635 413.888L170.925 358.245C161.203 359.268 158.346 352.702 158.133 349.29V333.941C157.621 324.731 166.448 323.281 170.925 323.707H401.812C411.022 324.219 412.898 330.316 412.685 333.301V348.651C413.196 357.861 404.37 358.884 399.893 358.245L385.823 413.888C382.625 422.842 374.097 426.679 369.194 427.319H363.437C359.856 436.529 351.499 437.552 347.448 437.552C336.703 438.575 333.164 431.583 332.098 427.319H235.522C235.522 430.517 230.021 437.04 220.812 437.552C211.602 438.064 207.167 430.943 206.101 427.319H202.903C193.182 427.831 187.34 418.578 185.635 413.888Z" fill="#FD9475"/>
<path d="M170.925 358.245L185.635 413.888C187.34 418.578 193.182 427.831 202.903 427.319H206.101M170.925 358.245H399.893M170.925 358.245C161.203 359.268 158.346 352.702 158.133 349.29V333.941C157.621 324.731 166.448 323.281 170.925 323.707H401.812C411.022 324.219 412.898 330.316 412.685 333.301V348.651C413.196 357.861 404.37 358.884 399.893 358.245M399.893 358.245L385.823 413.888C382.625 422.842 374.097 426.679 369.194 427.319H363.437M206.101 427.319C207.167 430.943 211.602 438.064 220.812 437.552C230.021 437.04 235.522 430.517 235.522 427.319M206.101 427.319H235.522M235.522 427.319H332.098M332.098 427.319C333.164 431.583 336.703 438.575 347.448 437.552C351.499 437.552 359.856 436.529 363.437 427.319M332.098 427.319H363.437" stroke="black" stroke-width="3.83746" stroke-linecap="round"/>
<path d="M274.536 397.259C275.389 401.096 278.629 406.852 284.769 399.178" stroke="black" stroke-width="3.83746" stroke-linecap="round"/>
<path d="M295.642 397.259C294.576 401.096 290.909 406.852 284.769 399.178" stroke="black" stroke-width="3.83746" stroke-linecap="round"/>
<ellipse cx="249.593" cy="390.863" rx="6.39577" ry="8.95408" fill="black"/>
<ellipse cx="317.388" cy="390.863" rx="6.39577" ry="8.95408" fill="black"/>
<path d="M187.166 410.02L177.32 372.955H179.878L185.635 395.34C188.833 407.931 192.355 420.284 200.345 424.761C195.603 423.812 192.268 420.755 190.078 417.412C188.617 415.183 187.85 412.595 187.166 410.02Z" fill="#FBF3CC" stroke="#FBF3CC" stroke-width="1.27915"/>
<path d="M360.776 373.211H177.329L174.122 360.163H396.695L385.183 406.852C383.904 419.644 374.673 423.878 370.397 425.4H337.685C352.383 419.55 356.257 398.159 360.726 373.484L360.776 373.211Z" fill="#E5686C" stroke="#E5686C" stroke-width="1.27915"/>
<path d="M162.61 334.58L162.61 353.768C161.331 353.128 160.691 351.209 160.691 346.732V331.382C160.691 328.824 163.249 326.137 165.808 325.626H370.473L358.448 328.24C356.663 328.628 354.841 328.824 353.014 328.824H175.401C161.97 328.377 162.61 332.022 162.61 334.58Z" fill="#FBF3CC" stroke="#FBF3CC" stroke-width="1.27915"/>
<path d="M350.006 356.326C376.229 349.93 372.391 341.616 370.844 325.626H404.275C406.846 325.626 411.347 329.545 410.704 334.771V351.849C410.064 355.686 406.928 356.326 404.275 356.326H350.006Z" fill="#E5686C" stroke="#E5686C" stroke-width="1.27915"/>
<path d="M175.401 341.763C175.401 338.503 178.045 335.859 181.305 335.859H184.848C188.108 335.859 190.751 338.503 190.751 341.763C190.751 345.024 188.108 347.667 184.848 347.667H181.305C178.045 347.667 175.401 345.024 175.401 341.763Z" fill="#FBF3CC"/>
<circle cx="206.101" cy="342.255" r="3.83746" fill="#FBF3CC"/>
<path d="M385.183 322.428H184.995C204.183 300.683 219.533 307.078 223.37 313.474C227.207 303.241 241.065 301.109 246.395 300.683C267.885 297.613 282.637 310.063 287.328 316.672C304.213 302.857 320.799 306.652 326.982 310.276C326.982 303.113 336.788 300.896 341.692 300.683C356.53 300.171 357.681 306.865 356.402 310.276C372.264 307.718 382.198 317.312 385.183 322.428Z" fill="#77DD82" stroke="black" stroke-width="3.83746"/>
<path d="M224.935 316.702C232.324 310.916 248.314 301.322 268.78 305.28C256.529 300.204 228.159 301.473 224.935 316.702Z" fill="#FBF3CC"/>
<path d="M217.614 311.555C209.939 305.799 195.91 314.582 190.752 319.87H197.787C199.706 316.032 210.578 311.555 217.614 311.555Z" fill="#FBF3CC"/>
<path d="M224.935 316.702C232.324 310.916 248.314 301.322 268.78 305.28C256.529 300.204 228.159 301.473 224.935 316.702Z" stroke="#FBF3CC" stroke-width="1.27915"/>
<path d="M217.614 311.555C209.939 305.799 195.91 314.582 190.752 319.87H197.787C199.706 316.032 210.578 311.555 217.614 311.555Z" stroke="#FBF3CC" stroke-width="1.27915"/>
<path d="M268.78 305.918C262.64 313.346 249.983 316.672 245.506 319.87H380.066C372.903 310.319 358.747 310.782 352.565 311.887C357.042 304.52 349.367 303.88 348.727 303.88C346.808 305.87 339.773 308.571 328.261 313.214C327.621 314.54 300.119 317.856 286.049 319.183C284.002 313.346 273.683 307.907 268.78 305.918Z" fill="#54AF90" stroke="#54AF90" stroke-width="1.27915"/>
<path d="M256.645 300.043C259.416 296.206 263.68 282.774 244.493 277.018C238.739 275.867 229.715 271.15 225.784 258.658C213.39 247.552 183.716 256.552 171.564 259.11C168.888 259.674 166.429 259.601 164 258.979C137.5 257.5 135 261 121 267L110 263.587C123 255.587 145.755 249.661 149.5 250.5C140.404 243.247 128.555 232.275 108 220.096H126.5C132 228 161 243.5 169.5 243.5C193.091 243.5 217.385 237.151 223.986 240.562C224.332 235.163 225.343 229.012 227.207 222.015C229.656 212.827 240.639 201.548 253.43 198.35C264.231 195.65 278.262 189.78 277.751 178.523C277.652 176.936 277.423 174.333 277.053 171.488C240.179 168.418 232.296 152.727 232.964 145.265H245.116C248.697 157.545 266.112 159.762 274.372 159.336C273.151 155.181 271.808 148.985 272.634 145.265H296.938C296.014 148.963 296.574 154.295 298.404 160.615C304.093 161.468 317.772 159.592 326.982 145.265H339.133C340.385 150.808 334.9 164.069 302.955 172.767C304.529 176.274 306.369 179.922 308.451 183.64C315.486 200.269 306.298 208.525 285.409 220.096C279.636 223.294 270.699 229.69 271.338 240.562C271.338 247.839 283.658 254.251 293.724 258.658C311.632 233.737 344.463 239.195 359.6 245.039C386.115 255.277 404.081 225.852 406 220.096H419C414.483 228.679 407.742 237.022 400.376 244C406 247 436 263.5 435.5 264.5C435.1 265.3 432 260.5 427 272C416 263.5 408.5 253.691 388.5 253.691C378.591 260.532 369.047 264.03 363.437 261.668C332.738 248.365 318.241 261.814 314.83 270.202C322.142 276.567 330.436 287.158 332.115 302.601C330.623 303.88 327.51 307.206 326.998 310.276C320.602 306.865 303.973 303.369 288.624 316.672C284.36 311.982 271.995 302.09 256.645 300.043Z" fill="#BA6E5C"/>
<path d="M314.83 270.202C310.997 266.866 307.435 264.692 305.236 263.587C303.121 262.525 298.697 260.836 293.724 258.658M314.83 270.202C322.142 276.567 330.436 287.158 332.115 302.601C330.623 303.88 327.51 307.206 326.998 310.276C320.602 306.865 303.973 303.369 288.624 316.672C284.36 311.982 271.995 302.09 256.645 300.043C259.416 296.206 263.68 282.774 244.493 277.018C238.739 275.867 229.715 271.15 225.784 258.658M314.83 270.202C318.241 261.814 332.738 248.365 363.437 261.668C369.047 264.03 378.591 260.532 388.5 253.691M293.724 258.658C311.632 233.737 344.463 239.195 359.6 245.039C386.115 255.277 404.081 225.852 406 220.096H419C414.483 228.679 407.742 237.022 400.376 244M223.986 240.562C224.332 235.163 225.343 229.012 227.207 222.015C229.656 212.827 240.639 201.548 253.43 198.35C264.231 195.65 278.262 189.78 277.751 178.523C277.652 176.936 277.423 174.333 277.053 171.488M223.986 240.562C217.385 237.151 193.091 243.5 169.5 243.5C161 243.5 132 228 126.5 220.096H108C128.555 232.275 140.404 243.247 149.5 250.5M223.986 240.562C223.515 247.903 224.273 253.855 225.784 258.658M225.784 258.658C213.39 247.552 183.716 256.552 171.564 259.11C168.888 259.674 166.429 259.601 164 258.979M298.404 160.615C296.574 154.295 296.014 148.963 296.938 145.265H272.634C271.808 148.985 273.151 155.181 274.372 159.336M298.404 160.615C304.093 161.468 317.772 159.592 326.982 145.265H339.133C340.385 150.808 334.9 164.069 302.955 172.767M298.404 160.615C299.49 164.363 301.022 168.458 302.955 172.767M274.372 159.336C274.663 160.325 274.947 161.198 275.192 161.894C276.013 164.63 276.627 168.219 277.053 171.488M274.372 159.336C266.112 159.762 248.697 157.545 245.116 145.265H232.964C232.296 152.727 240.179 168.418 277.053 171.488M388.5 253.691C408.5 253.691 416 263.5 427 272C432 260.5 435.1 265.3 435.5 264.5C436 263.5 406 247 400.376 244M388.5 253.691C392.477 250.945 396.513 247.66 400.376 244M149.5 250.5C145.755 249.661 123 255.587 110 263.587L121 267C135 261 137.5 257.5 164 258.979M149.5 250.5C154.931 254.83 159.532 257.835 164 258.979" stroke="black" stroke-width="3.83746"/>
<path d="M260.013 199.608C233.366 206.999 229.273 223.851 225.928 243.121C226.568 222.654 233.603 213.061 240.639 207.304C250.232 198.35 280.292 198.35 280.292 175.965C282.058 187.146 272.994 193.454 264.56 197.878C263.121 198.633 261.579 199.173 260.013 199.608Z" fill="#FADFB6"/>
<path d="M296.921 257.831C305.662 250.156 332.579 239.685 362 248C346.5 242.5 316.748 236.085 296.921 257.831Z" fill="#FADFB6"/>
<path d="M242.557 222.015C235.522 236.725 235.522 252.075 246.395 264.866C241.278 259.75 229.766 244.4 242.557 222.015Z" fill="#FADFB6"/>
<path d="M260.013 199.608C233.366 206.999 229.273 223.851 225.928 243.121C226.568 222.654 233.603 213.061 240.639 207.304C250.232 198.35 280.292 198.35 280.292 175.965C282.058 187.146 272.994 193.454 264.56 197.878C263.121 198.633 261.579 199.173 260.013 199.608Z" stroke="#FADFB6" stroke-width="1.27915"/>
<path d="M296.921 257.831C305.662 250.156 332.579 239.685 362 248C346.5 242.5 316.748 236.085 296.921 257.831Z" stroke="#FADFB6" stroke-width="1.27915"/>
<path d="M242.557 222.015C235.522 236.725 235.522 252.075 246.395 264.866C241.278 259.75 229.766 244.4 242.557 222.015Z" stroke="#FADFB6" stroke-width="1.27915"/>
<path d="M297.561 195.792C302.038 174.046 289.886 172.767 280.292 175.325C280.292 168.93 275.176 155.499 274.536 147.184H294.363C291.165 159.336 311.632 190.675 308.434 193.873C308.945 204.618 292.444 214.553 284.13 218.177C268.268 226.364 268.14 238.644 270.059 243.76C277.222 251.947 296.921 262.521 305.875 266.785C321.737 274.46 328.261 293.008 329.54 301.322C329.028 301.834 326.342 305.373 325.063 307.078C324.551 306.055 317.601 305.16 314.19 304.52C306.321 303.396 295.652 308.481 289.565 312.087C288.855 312.568 288.11 313.031 287.328 313.474C287.973 313.053 288.726 312.584 289.565 312.087C306.275 300.77 303.358 279.555 296.282 274.46C288.287 268.704 280.292 268.409 267.501 254.633C259.186 245.679 260.039 236.725 261.105 233.527C264.303 214.979 292.444 209.863 297.561 195.792Z" fill="#A94C60"/>
<path d="M303.957 170.209L301.398 163.174C315.213 163.174 325.063 152.514 328.261 147.184H337.215C333.121 160.487 313.337 168.077 303.957 170.209Z" fill="#A94C60"/>
<path d="M274.536 169.569C274.536 169.569 273.257 163.6 272.617 161.255C252.663 161.766 245.116 152.088 243.836 147.184H234.882C238.976 163.046 262.81 168.717 274.536 169.569Z" fill="#A94C60"/>
<path d="M270.059 301.322C274.664 283.414 250.658 274.247 238.08 271.902C264.175 280.6 263.45 293.008 259.826 298.124L270.059 301.322Z" fill="#A94C60"/>
<path d="M222.091 253.354L221.451 248.237C212.497 242.481 195 248.237 182 250C162.5 249 130 226.5 125 222H116C137.5 235.5 159 259 169 257.5C187 252 208 248.237 222.091 253.354Z" fill="#A94C60"/>
<path d="M369 254C341 241.5 313.763 254.846 306.515 261.668L314.19 266.785C333.743 243.405 355.326 257.827 365.831 260.273C366.606 260.453 367.4 260.482 368.191 260.391C389.797 257.914 411.313 228.571 415.5 222.5H407C404.5 233.5 376.654 257.417 369 254Z" fill="#A94C60"/>
<path d="M297.561 195.792C302.038 174.046 289.886 172.767 280.292 175.325C280.292 168.93 275.176 155.499 274.536 147.184H294.363C291.165 159.336 311.632 190.675 308.434 193.873C308.945 204.618 292.444 214.553 284.13 218.177C268.268 226.364 268.14 238.644 270.059 243.76C277.222 251.947 296.921 262.521 305.875 266.785C321.737 274.46 328.261 293.008 329.54 301.322C329.028 301.834 326.342 305.373 325.063 307.078C324.551 306.055 317.601 305.16 314.19 304.52C306.321 303.396 295.652 308.481 289.565 312.087C288.855 312.568 288.11 313.031 287.328 313.474C287.973 313.053 288.726 312.584 289.565 312.087C306.275 300.77 303.358 279.555 296.282 274.46C288.287 268.704 280.292 268.409 267.501 254.633C259.186 245.679 260.039 236.725 261.105 233.527C264.303 214.979 292.444 209.863 297.561 195.792Z" stroke="#AE677B" stroke-width="1.27915"/>
<path d="M303.957 170.209L301.398 163.174C315.213 163.174 325.063 152.514 328.261 147.184H337.215C333.121 160.487 313.337 168.077 303.957 170.209Z" stroke="#AE677B" stroke-width="1.27915"/>
<path d="M274.536 169.569C274.536 169.569 273.257 163.6 272.617 161.255C252.663 161.766 245.116 152.088 243.836 147.184H234.882C238.976 163.046 262.81 168.717 274.536 169.569Z" stroke="#AE677B" stroke-width="1.27915"/>
<path d="M270.059 301.322C274.664 283.414 250.658 274.247 238.08 271.902C264.175 280.6 263.45 293.008 259.826 298.124L270.059 301.322Z" stroke="#AE677B" stroke-width="1.27915"/>
<path d="M222.091 253.354L221.451 248.237C212.497 242.481 195 248.237 182 250C162.5 249 130 226.5 125 222H116C137.5 235.5 159 259 169 257.5C187 252 208 248.237 222.091 253.354Z" stroke="#AE677B" stroke-width="1.27915"/>
<path d="M369 254C341 241.5 313.763 254.846 306.515 261.668L314.19 266.785C333.743 243.405 355.326 257.827 365.831 260.273C366.606 260.453 367.4 260.482 368.191 260.391C389.797 257.914 411.313 228.571 415.5 222.5H407C404.5 233.5 376.654 257.417 369 254Z" stroke="#AE677B" stroke-width="1.27915"/>
<path d="M304.734 261.912C305.068 262.176 305.403 262.44 305.738 262.704C305.985 262.38 306.26 262.041 306.528 261.723C311.527 256.031 318.075 251.06 325.723 249.887C326.145 249.829 326.568 249.785 326.994 249.756C326.986 249.596 326.977 249.437 326.969 249.277C326.531 249.293 326.095 249.325 325.66 249.371C317.756 250.344 310.939 255.194 305.594 260.909C305.305 261.231 305.007 261.576 304.734 261.912Z" fill="black"/>
<path d="M269.824 300.633C269.981 300.666 270.137 300.699 270.294 300.732C270.522 299.905 270.667 299.049 270.741 298.177C271.034 294.722 270.199 291.175 268.558 288.105C262.459 277.085 249.598 272.971 238.09 271.336C237.263 271.222 236.418 271.118 235.553 271.024C235.532 271.183 235.512 271.341 235.491 271.5C236.347 271.628 237.183 271.766 237.998 271.912C249.39 273.978 261.735 278.333 267.429 288.707C268.972 291.601 269.916 294.841 269.974 298.15C269.987 298.985 269.942 299.815 269.824 300.633Z" fill="black"/>
<path d="M266.968 273.606C266.897 273.749 266.825 273.892 266.754 274.035C267.326 274.38 267.915 274.768 268.461 275.156C270.687 276.738 272.714 278.556 274.559 280.536C281.149 287.409 283.925 297.523 281.809 306.924C281.672 307.596 281.519 308.251 281.341 308.93C281.495 308.975 281.648 309.019 281.802 309.064C282.016 308.386 282.205 307.73 282.377 307.054C285.017 297.629 282.379 286.8 275.496 279.665C273.577 277.604 271.34 275.837 268.865 274.503C268.257 274.177 267.603 273.863 266.968 273.606Z" fill="black"/>
<path d="M276.607 262.122C276.505 262.246 276.404 262.37 276.303 262.494C277.086 263.203 277.918 263.859 278.783 264.469C282.253 266.91 286.155 268.621 290.032 270.177C293.158 271.457 296.389 272.585 299.135 274.337C307.997 280.679 314.449 291.45 313.686 302.67C313.619 303.699 313.496 304.724 313.315 305.754C313.472 305.784 313.629 305.814 313.786 305.845C314.005 304.805 314.165 303.765 314.267 302.717C315.402 291.244 309.041 279.993 299.824 273.304C296.858 271.389 293.635 270.275 290.508 268.99C286.639 267.437 282.768 265.923 279.2 263.825C278.31 263.299 277.441 262.736 276.607 262.122Z" fill="black"/>
<path d="M295.197 176.464C295.067 176.558 294.938 176.652 294.808 176.745C295.695 178.064 296.411 179.508 296.928 181.003C299.107 187.041 297.494 193.776 293.803 198.875C289.114 205.451 282.116 210.048 274.905 213.811L274.879 213.826C262.162 220.564 253.786 238.623 263.672 250.931C264.585 252.28 265.581 253.546 266.68 254.79C266.801 254.685 266.922 254.581 267.043 254.476C265.983 253.223 265.028 251.953 264.159 250.61C254.805 238.336 263.11 221.393 275.473 214.854L275.446 214.868C282.775 211.105 289.941 206.48 294.85 199.609C298.733 194.297 300.277 186.897 297.646 180.733C297.025 179.204 296.196 177.757 295.197 176.464Z" fill="black"/>
<path d="M251.664 212.606C251.562 212.483 251.46 212.359 251.358 212.236C250.548 212.837 249.741 213.49 248.962 214.17C245.861 216.879 243.126 220.017 240.882 223.492C232.274 235.253 233.17 253.477 244.579 262.991C245.319 263.701 246.065 264.367 246.877 265.048C246.982 264.927 247.087 264.806 247.191 264.685C246.411 263.985 245.696 263.301 244.989 262.577C234.126 252.75 233.659 235.697 241.958 224.185C244.141 220.803 246.67 217.64 249.489 214.727C250.198 213.997 250.931 213.281 251.664 212.606Z" fill="black"/>
<path d="M278.589 150.278C278.56 150.223 278.511 150.18 278.451 150.16C278.392 150.14 278.327 150.144 278.271 150.171C278.215 150.198 278.172 150.246 278.151 150.305C278.13 150.364 278.133 150.429 278.158 150.486C278.613 151.549 279.054 152.632 279.471 153.713C281.141 158.045 282.501 162.482 283.389 167.006C287.732 182.816 278.416 200.773 261.871 204.259C260.749 204.594 259.668 204.88 258.496 205.151C258.435 205.165 258.381 205.203 258.347 205.256C258.312 205.31 258.301 205.374 258.314 205.436C258.327 205.498 258.365 205.552 258.418 205.586C258.471 205.62 258.535 205.632 258.597 205.62C259.786 205.381 260.886 205.127 262.03 204.82C269.907 202.762 277.703 198.359 281.844 190.979C286.044 183.659 286.225 174.787 284.644 166.761C283.735 162.129 282.179 157.651 280.177 153.41C279.677 152.352 279.144 151.3 278.589 150.278Z" fill="black"/>
<path d="M74.7262 164.957C64.6566 158.244 60.9405 167.754 60.3411 173.348C46.4354 178.143 41.3606 188.932 41.1608 194.326C39.2428 209.191 54.9467 218.302 63.338 218.901H170.028C204.073 217.942 206.99 196.924 204.193 186.534C197.959 164.477 178.02 161.76 168.829 163.159C171.227 133.909 141.258 123 123.876 123C84.3163 125.398 75.1258 152.569 74.7262 164.957Z" fill="#77DD82" stroke="black" stroke-width="3.59629"/>
<path d="M99.3008 173.348C99.3008 175.996 97.154 178.143 94.5057 178.143C91.8575 178.143 89.7107 175.996 89.7107 173.348C89.7107 170.7 91.8575 168.553 94.5057 168.553C97.154 168.553 99.3008 170.7 99.3008 173.348Z" fill="#FDFDF2"/>
<circle cx="173.624" cy="181.739" r="4.79505" fill="#FDFDF2"/>
<circle cx="137.062" cy="149.972" r="5.39443" fill="#FDFDF2"/>
<circle cx="144.854" cy="160.162" r="3.59629" fill="#FDFDF2"/>
<circle cx="69.9311" cy="189.531" r="4.19567" fill="#FDFDF2"/>
<path d="M77.1237 179.941C58.5429 176.345 49.5522 188.332 43.5583 194.926C44.7571 182.938 57.3441 176.345 62.1392 175.146C63.9373 159.562 72.3287 166.155 76.5243 168.553C80.1206 119.404 136.463 120.003 152.646 133.789C104.695 121.202 78.1227 158.963 77.1237 179.941Z" fill="#F6FAD5" stroke="#F6FAD5" stroke-width="1.19876"/>
<path d="M89.1114 200.919C58.9025 203.797 46.3555 198.922 43.5584 195.525C41.7602 203.916 52.5491 218.302 66.3349 216.503H180.217C191.606 215.305 213.783 199.721 195.801 175.146C194.603 200.919 163.435 203.317 152.046 200.919C146.053 209.91 136.463 205.715 132.866 200.919H99.3008C100.26 196.124 96.5037 194.526 94.5058 194.326C88.2722 193.367 88.3122 198.322 89.1114 200.919Z" fill="#54AF90" stroke="#54AF90" stroke-width="1.19876"/>
<path d="M132.932 197.323C132.532 199.921 133.771 205.355 141.923 206.314C144.72 206.714 150.673 205.715 152.112 198.522" stroke="black" stroke-width="3.59629" stroke-linecap="round"/>
<path d="M30.1342 268C21.7342 262.4 18.6342 270.333 18.1342 275C6.53417 279 2.30083 288 2.13417 292.5C0.534174 304.9 13.6342 312.5 20.6342 313H109.634C138.034 312.2 140.468 294.667 138.134 286C132.934 267.6 116.301 265.333 108.634 266.5C110.634 242.1 85.6342 233 71.1342 233C38.1342 235 30.4675 257.667 30.1342 268Z" fill="#77DD82" stroke="black" stroke-width="3"/>
<path d="M50.6343 275C50.6343 277.209 48.8434 279 46.6343 279C44.4251 279 42.6343 277.209 42.6343 275C42.6343 272.791 44.4251 271 46.6343 271C48.8434 271 50.6343 272.791 50.6343 275Z" fill="#FDFDF2"/>
<circle cx="112.634" cy="282" r="4" fill="#FDFDF2"/>
<circle cx="82.134" cy="255.5" r="4.5" fill="#FDFDF2"/>
<circle cx="88.6343" cy="264" r="3" fill="#FDFDF2"/>
<circle cx="26.1343" cy="288.5" r="3.5" fill="#FDFDF2"/>
<path d="M32.1343 280.5C16.6343 277.5 9.13428 287.5 4.13428 293C5.13428 283 15.6343 277.5 19.6343 276.5C21.1343 263.5 28.1343 269 31.6343 271C34.6343 230 81.6343 230.5 95.1343 242C55.1343 231.5 32.9676 263 32.1343 280.5Z" fill="#F6FAD5" stroke="#F6FAD5"/>
<path d="M42.1342 298C16.9342 300.4 6.46755 296.333 4.13422 293.5C2.63419 300.5 11.6343 312.5 23.1342 311H118.134C127.634 310 146.134 297 131.134 276.5C130.134 298 104.134 300 94.6343 298C89.6343 305.5 81.6343 302 78.6343 298H50.6342C51.4342 294 48.3009 292.667 46.6342 292.5C41.4342 291.7 41.4675 295.833 42.1342 298Z" fill="#54AF90" stroke="#54AF90"/>
<path d="M78.6887 295C78.3554 297.167 79.3887 301.7 86.1887 302.5C88.5221 302.833 93.4887 302 94.6887 296" stroke="black" stroke-width="3" stroke-linecap="round"/>
<path d="M440.557 266.282C432.329 260.797 429.293 268.567 428.803 273.138C417.441 277.056 413.295 285.871 413.131 290.279C411.564 302.424 424.395 309.868 431.252 310.358H518.425C546.242 309.575 548.626 292.401 546.34 283.912C541.247 265.89 524.955 263.67 517.446 264.812C519.405 240.913 494.918 232 480.715 232C448.393 233.959 440.883 256.16 440.557 266.282Z" fill="#77DD82" stroke="black" stroke-width="2.93843"/>
<path d="M460.636 273.138C460.636 275.302 458.882 277.056 456.718 277.056C454.554 277.056 452.8 275.302 452.8 273.138C452.8 270.974 454.554 269.22 456.718 269.22C458.882 269.22 460.636 270.974 460.636 273.138Z" fill="#FDFDF2"/>
<circle cx="521.364" cy="279.994" r="3.91791" fill="#FDFDF2"/>
<circle cx="491.49" cy="254.038" r="4.40765" fill="#FDFDF2"/>
<circle cx="497.856" cy="262.364" r="2.93843" fill="#FDFDF2"/>
<circle cx="436.639" cy="286.361" r="3.42817" fill="#FDFDF2"/>
<path d="M442.516 278.525C427.334 275.587 419.988 285.381 415.09 290.769C416.07 280.974 426.354 275.587 430.272 274.607C431.742 261.874 438.598 267.261 442.026 269.22C444.965 229.061 491 229.551 504.223 240.815C465.044 230.531 443.332 261.384 442.516 278.525Z" fill="#F6FAD5" stroke="#F6FAD5" stroke-width="0.979477"/>
<path d="M452.31 295.666C427.628 298.017 417.376 294.033 415.09 291.258C413.621 298.115 422.436 309.868 433.7 308.399H526.751C536.056 307.42 554.176 294.686 539.484 274.607C538.505 295.666 513.038 297.625 503.733 295.666C498.836 303.012 491 299.584 488.061 295.666H460.636C461.42 291.748 458.351 290.442 456.718 290.279C451.625 289.495 451.657 293.544 452.31 295.666Z" fill="#54AF90" stroke="#54AF90" stroke-width="0.979477"/>
<path d="M488.115 292.728C487.789 294.85 488.801 299.29 495.461 300.074C497.747 300.4 502.611 299.584 503.787 293.707" stroke="black" stroke-width="2.93843" stroke-linecap="round"/>
<path d="M151.464 111.368C146.859 84.2497 177.96 70.0084 193.31 66.5973C189.216 58.4108 192.67 52.7398 195.228 50.6079C201.368 45.4913 210.578 50.6079 212.497 53.8058C226.824 12.3611 263.663 2 280.292 2C338.494 2.63958 348.727 51.8871 348.087 46.7705C347.448 41.6539 366.062 37.6501 369.194 52.5266C371.752 64.6786 364.716 64.039 359.6 67.8765C380.706 67.8765 417.801 81.9472 413.324 111.368C409.743 134.904 384.543 143.347 372.391 144.626H191.757C180.245 144.839 156.069 138.486 151.464 111.368Z" fill="#77DD82" stroke="black" stroke-width="3.83746"/>
<circle cx="305.236" cy="39.7351" r="7.03535" fill="#FDFDF2"/>
<circle cx="242.557" cy="79.3889" r="5.7562" fill="#FDFDF2"/>
<circle cx="319.946" cy="50.6079" r="3.83746" fill="#FDFDF2"/>
<path d="M213.137 76.191C170.385 69.5493 158.001 93.6885 153.656 104.332C154.935 82.5866 183.077 71.0744 196.508 67.8765C184.356 46.7705 208.02 46.7704 213.137 58.9224C236.801 -6.95418 296.282 0.0811667 317.388 14.1519C253.43 -5.03545 219.436 46.1756 213.137 76.191Z" fill="#F6FAD5" stroke="#F6FAD5" stroke-width="1.27915" stroke-linecap="round"/>
<path d="M213.696 120.322C176.395 125.95 160.043 113.286 153.656 106.891C154.933 132.474 178.566 141.428 188.786 142.707H372.738C423.836 129.276 414.604 93.4595 397.335 82.5867C397.335 116.484 355.067 122.667 337.608 121.601C330.582 132.474 321.001 126.718 317.808 121.601L260.323 120.322C257.129 110.728 246.271 116.484 246.271 120.322H230.942C226.47 127.357 216.89 123.52 213.696 120.322Z" fill="#54AF90" stroke="#54AF90" stroke-width="1.27915"/>
<path d="M324.423 78.1097C335.296 55.0849 363.437 60.8411 365.356 49.3287C371.752 64.6786 360.879 61.3274 354.483 69.0024C347.32 66.9557 331.459 74.4854 324.423 78.1097Z" fill="#54AF90" stroke="#54AF90" stroke-width="1.27915"/>
<path d="M212.497 115.205C212.071 117.977 213.393 123.776 222.091 124.799C225.075 125.225 231.429 124.159 232.964 116.484" stroke="black" stroke-width="3.83746" stroke-linecap="round"/>
<path d="M317.458 118.403C317.031 121.175 318.353 126.973 327.051 127.997C330.036 128.423 336.389 127.357 337.924 119.682" stroke="black" stroke-width="3.83746" stroke-linecap="round"/>
<path d="M374.76 156.529C371.415 159.874 373.645 163.777 376.433 166.564C369.743 166.564 364.725 168.179 360.822 170.467C344.654 179.945 345.026 195.184 346.884 201.131C348.668 211.389 363.052 218.414 370.3 219.529H481.248C497.75 218.191 503.734 206.706 504.664 201.131C509.124 181.506 493.513 173.998 485.15 172.697C488.719 169.575 489.239 167.308 489.053 166.564C489.499 158.09 480.69 160.06 476.23 162.104C465.525 132.667 443.15 127.166 433.301 128.095C400.741 130.325 388.513 149.838 386.468 159.316C381.116 152.626 376.883 154.406 374.76 156.529Z" fill="#77DD82" stroke="black" stroke-width="3.34515"/>
<circle cx="445.009" cy="157.086" r="6.13278" fill="#FDFDF2"/>
<circle cx="405.982" cy="168.237" r="5.01773" fill="#FDFDF2"/>
<circle cx="369.185" cy="186.078" r="5.01773" fill="#FDFDF2"/>
<circle cx="455.602" cy="164.334" r="3.34515" fill="#FDFDF2"/>
<path d="M348.114 190.377L347.999 190.538C350.229 180.502 361.38 166.671 379.778 168.344C367.512 159.423 379.778 149.945 387.026 163.883C385.353 147.158 426.61 116.387 455.601 137.015C413.787 128.095 390.928 156.529 388.141 173.255C364.738 167.098 353.725 182.52 348.114 190.377Z" fill="#F6FAD5" stroke="#F6FAD5" stroke-width="1.11505"/>
<path d="M497.76 180.064C499.823 181.685 501.65 184.545 502.796 187.966C503.946 191.396 504.429 195.443 503.75 199.481C503.07 203.525 501.224 207.557 497.724 210.932C494.226 214.305 489.103 216.994 481.913 218.404L481.859 218.415H370.786L370.717 218.396C366.014 217.173 359.207 214.325 354.067 209.728C348.911 205.117 345.386 198.692 347.459 190.403L348.553 190.476C348.804 192.729 350.797 196.1 356.287 198.429C361.691 200.722 370.445 201.979 384.067 200.11C383.627 198.357 384.186 196.841 385.286 195.716C386.494 194.478 388.335 193.722 390.176 193.538C392.017 193.354 393.96 193.732 395.346 194.893C396.646 195.982 397.368 197.688 397.137 200.016H445.566V200.574C445.566 202.325 446.474 203.997 447.954 205.344C449.432 206.691 451.442 207.673 453.537 208.039C455.63 208.404 457.769 208.148 459.537 207.075C461.294 206.008 462.75 204.093 463.42 201.012L463.527 200.518L464.029 200.578C468.634 201.12 475.884 199.788 482.486 196.424C489.083 193.064 494.925 187.733 496.877 180.36L497.093 179.541L497.76 180.064ZM481.805 161.547C484.515 161.547 486.249 162.221 487.113 163.447C487.978 164.675 487.823 166.244 487.274 167.671C486.719 169.115 485.712 170.553 484.636 171.665C484.096 172.223 483.528 172.71 482.976 173.079C482.432 173.443 481.868 173.716 481.339 173.804L481.213 173.826L481.09 173.79C477.5 172.734 472.966 173.868 468.592 175.787C464.246 177.694 460.182 180.318 457.588 182.079L456.404 182.882L456.731 181.49C457.894 176.549 462.076 172.173 466.919 168.758C471.779 165.329 477.411 162.794 481.65 161.569L481.726 161.547H481.805Z" fill="#54AF90"/>
<path d="M445.627 200.016C445.255 202.432 446.408 207.487 453.99 208.379C456.592 208.75 462.13 207.821 463.468 201.131" stroke="black" stroke-width="3.34515" stroke-linecap="round"/>
</svg> 