<svg width="479" height="450" viewBox="0 0 479 450" fill="none" xmlns="http://www.w3.org/2000/svg">
<ellipse cx="249.048" cy="437.552" rx="143.905" ry="12.152" fill="#1D1A2A"/>
<path d="M148.635 413.888L133.924 358.245C124.203 359.268 121.346 352.702 121.133 349.29V333.941C120.621 324.731 129.447 323.281 133.924 323.707H364.812C374.022 324.219 375.898 330.316 375.685 333.301V348.651C376.196 357.861 367.37 358.884 362.893 358.245L348.822 413.888C345.625 422.842 337.097 426.679 332.193 427.319H326.437C322.856 436.529 314.498 437.552 310.448 437.552C299.703 438.575 296.164 431.583 295.098 427.319H198.522C198.522 430.517 193.021 437.04 183.811 437.552C174.602 438.064 170.167 430.943 169.101 427.319H165.903C156.182 427.831 150.34 418.578 148.635 413.888Z" fill="#FD9475"/>
<path d="M133.924 358.245L148.635 413.888C150.34 418.578 156.182 427.831 165.903 427.319H169.101M133.924 358.245H362.893M133.924 358.245C124.203 359.268 121.346 352.702 121.133 349.29V333.941C120.621 324.731 129.447 323.281 133.924 323.707H364.812C374.022 324.219 375.898 330.316 375.685 333.301V348.651C376.196 357.861 367.37 358.884 362.893 358.245M362.893 358.245L348.822 413.888C345.625 422.842 337.097 426.679 332.193 427.319H326.437M169.101 427.319C170.167 430.943 174.602 438.064 183.811 437.552C193.021 437.04 198.522 430.517 198.522 427.319M169.101 427.319H198.522M198.522 427.319H295.098M295.098 427.319C296.164 431.583 299.703 438.575 310.448 437.552C314.498 437.552 322.856 436.529 326.437 427.319M295.098 427.319H326.437" stroke="black" stroke-width="3.83746" stroke-linecap="round"/>
<path d="M237.536 397.259C238.389 401.096 241.629 406.852 247.769 399.178" stroke="black" stroke-width="3.83746" stroke-linecap="round"/>
<path d="M258.642 397.259C257.576 401.096 253.909 406.852 247.769 399.178" stroke="black" stroke-width="3.83746" stroke-linecap="round"/>
<ellipse cx="212.593" cy="390.863" rx="6.39577" ry="8.95408" fill="black"/>
<ellipse cx="280.388" cy="390.863" rx="6.39577" ry="8.95408" fill="black"/>
<path d="M150.166 410.02L140.32 372.955H142.879L148.635 395.34C151.833 407.931 155.355 420.284 163.345 424.761C158.603 423.812 155.268 420.755 153.078 417.412C151.618 415.183 150.85 412.595 150.166 410.02Z" fill="#FBF3CC" stroke="#FBF3CC" stroke-width="1.27915"/>
<path d="M323.776 373.211H140.329L137.122 360.163H359.695L348.183 406.852C346.904 419.644 337.673 423.878 333.397 425.4H300.685C315.383 419.55 319.257 398.159 323.726 373.484L323.776 373.211Z" fill="#E5686C" stroke="#E5686C" stroke-width="1.27915"/>
<path d="M125.61 334.58L125.61 353.768C124.331 353.128 123.691 351.209 123.691 346.732V331.382C123.691 328.824 126.249 326.137 128.808 325.626H333.473L321.448 328.24C319.663 328.628 317.841 328.824 316.014 328.824H138.401C124.97 328.377 125.61 332.022 125.61 334.58Z" fill="#FBF3CC" stroke="#FBF3CC" stroke-width="1.27915"/>
<path d="M313.006 356.326C339.229 349.93 335.391 341.616 333.844 325.626H367.275C369.846 325.626 374.347 329.545 373.704 334.771V351.849C373.064 355.686 369.928 356.326 367.275 356.326H313.006Z" fill="#E5686C" stroke="#E5686C" stroke-width="1.27915"/>
<path d="M138.402 341.763C138.402 338.503 141.045 335.859 144.305 335.859H147.848C151.108 335.859 153.751 338.503 153.751 341.763C153.751 345.024 151.108 347.667 147.848 347.667H144.305C141.045 347.667 138.402 345.024 138.402 341.763Z" fill="#FBF3CC"/>
<circle cx="169.101" cy="342.255" r="3.83746" fill="#FBF3CC"/>
<path d="M348.183 322.428H147.995C167.183 300.683 182.533 307.078 186.37 313.474C190.207 303.241 204.065 301.109 209.395 300.683C230.885 297.613 245.637 310.063 250.328 316.672C267.213 302.857 283.799 306.652 289.982 310.276C289.982 303.113 299.788 300.896 304.692 300.683C319.53 300.171 320.681 306.865 319.402 310.276C335.264 307.718 345.198 317.312 348.183 322.428Z" fill="#77DD82" stroke="black" stroke-width="3.83746"/>
<path d="M187.935 316.702C195.324 310.916 211.313 301.322 231.78 305.28C219.529 300.204 191.159 301.473 187.935 316.702Z" fill="#FBF3CC"/>
<path d="M180.614 311.555C172.939 305.799 158.91 314.582 153.751 319.87H160.787C162.706 316.032 173.578 311.555 180.614 311.555Z" fill="#FBF3CC"/>
<path d="M187.935 316.702C195.324 310.916 211.313 301.322 231.78 305.28C219.529 300.204 191.159 301.473 187.935 316.702Z" stroke="#FBF3CC" stroke-width="1.27915"/>
<path d="M180.614 311.555C172.939 305.799 158.91 314.582 153.751 319.87H160.787C162.706 316.032 173.578 311.555 180.614 311.555Z" stroke="#FBF3CC" stroke-width="1.27915"/>
<path d="M231.78 305.918C225.64 313.346 212.983 316.672 208.506 319.87H343.066C335.903 310.319 321.747 310.782 315.565 311.887C320.042 304.52 312.367 303.88 311.727 303.88C309.808 305.87 302.773 308.571 291.261 313.214C290.621 314.54 263.119 317.856 249.049 319.183C247.002 313.346 236.683 307.907 231.78 305.918Z" fill="#54AF90" stroke="#54AF90" stroke-width="1.27915"/>
<path d="M219.645 300.043C222.416 296.206 226.68 282.774 207.493 277.018C201.739 275.867 192.715 271.15 188.784 258.658C176.39 247.552 146.716 256.552 134.564 259.11C118.719 262.446 106.21 247.936 101.946 238.644H116.017C120.621 249.9 134.991 246.745 141.6 243.76C162.066 233.015 180.385 237.151 186.986 240.562C187.332 235.163 188.343 229.012 190.207 222.015C192.656 212.827 203.639 201.548 216.43 198.35C227.231 195.65 241.262 189.78 240.751 178.523C240.652 176.936 240.423 174.333 240.053 171.488C203.179 168.418 195.296 152.727 195.964 145.265H208.116C211.697 157.545 229.112 159.762 237.372 159.336C236.151 155.181 234.808 148.985 235.634 145.265H259.938C259.014 148.963 259.574 154.295 261.404 160.615C267.093 161.468 280.772 159.592 289.982 145.265H302.133C303.385 150.808 297.9 164.069 265.955 172.767C267.529 176.274 269.369 179.922 271.451 183.64C278.486 200.269 269.298 208.525 248.409 220.096C242.636 223.294 233.699 229.69 234.338 240.562C234.338 247.839 246.658 254.251 256.724 258.658C274.632 233.737 307.463 239.195 322.6 245.039C348.183 259.878 363.533 250.796 365.452 245.039H380.162C367.37 269.343 338.589 266.785 326.437 261.668C295.738 248.365 281.241 261.814 277.83 270.202C285.142 276.567 293.436 287.158 295.115 302.601C293.623 303.88 290.51 307.206 289.998 310.276C283.602 306.865 266.973 303.369 251.624 316.672C247.36 311.982 234.995 302.09 219.645 300.043Z" fill="#BA6E5C"/>
<path d="M277.83 270.202C273.998 266.866 270.435 264.692 268.236 263.587C266.121 262.525 261.697 260.836 256.724 258.658M277.83 270.202C285.142 276.567 293.436 287.158 295.115 302.601C293.623 303.88 290.51 307.206 289.998 310.276C283.602 306.865 266.973 303.369 251.624 316.672C247.36 311.982 234.995 302.09 219.645 300.043C222.416 296.206 226.68 282.774 207.493 277.018C201.739 275.867 192.715 271.15 188.784 258.658M277.83 270.202C281.241 261.814 295.738 248.365 326.437 261.668C338.589 266.785 367.37 269.343 380.162 245.039H365.452C363.533 250.796 348.183 259.878 322.6 245.039C307.463 239.195 274.632 233.737 256.724 258.658M256.724 258.658C246.658 254.251 234.338 247.839 234.338 240.562C233.699 229.69 242.636 223.294 248.409 220.096C269.298 208.525 278.486 200.269 271.451 183.64C269.369 179.922 267.529 176.274 265.955 172.767M186.986 240.562C187.332 235.163 188.343 229.012 190.207 222.015C192.656 212.827 203.639 201.548 216.43 198.35C227.231 195.65 241.262 189.78 240.751 178.523C240.652 176.936 240.423 174.333 240.053 171.488M186.986 240.562C180.385 237.151 162.066 233.015 141.6 243.76C134.991 246.745 120.621 249.9 116.017 238.644H101.946C106.21 247.936 118.719 262.446 134.564 259.11C146.716 256.552 176.39 247.552 188.784 258.658M186.986 240.562C186.515 247.903 187.273 253.855 188.784 258.658M261.404 160.615C259.574 154.295 259.014 148.963 259.938 145.265H235.634C234.808 148.985 236.151 155.181 237.372 159.336M261.404 160.615C267.093 161.468 280.772 159.592 289.982 145.265H302.134C303.385 150.808 297.9 164.069 265.955 172.767M261.404 160.615C262.49 164.363 264.022 168.458 265.955 172.767M237.372 159.336C237.663 160.325 237.947 161.198 238.192 161.894C239.013 164.63 239.627 168.219 240.053 171.488M237.372 159.336C229.112 159.762 211.697 157.545 208.116 145.265H195.964C195.296 152.727 203.179 168.418 240.053 171.488" stroke="black" stroke-width="3.83746"/>
<path d="M223.013 199.608C196.366 206.999 192.273 223.851 188.928 243.121C189.568 222.654 196.603 213.061 203.639 207.304C213.232 198.35 243.292 198.35 243.292 175.965C245.058 187.146 235.994 193.454 227.56 197.878C226.121 198.633 224.579 199.173 223.013 199.608Z" fill="#FADFB6"/>
<path d="M259.921 257.831C268.662 250.156 293.179 239.283 322.6 247.598C307.89 241.841 279.748 236.085 259.921 257.831Z" fill="#FADFB6"/>
<path d="M205.557 222.015C198.522 236.725 198.522 252.075 209.395 264.866C204.278 259.75 192.766 244.4 205.557 222.015Z" fill="#FADFB6"/>
<path d="M223.013 199.608C196.366 206.999 192.273 223.851 188.928 243.121C189.568 222.654 196.603 213.061 203.639 207.304C213.232 198.35 243.292 198.35 243.292 175.965C245.058 187.146 235.994 193.454 227.56 197.878C226.121 198.633 224.579 199.173 223.013 199.608Z" stroke="#FADFB6" stroke-width="1.27915"/>
<path d="M259.921 257.831C268.662 250.156 293.179 239.283 322.6 247.598C307.89 241.841 279.748 236.085 259.921 257.831Z" stroke="#FADFB6" stroke-width="1.27915"/>
<path d="M205.557 222.015C198.522 236.725 198.522 252.075 209.395 264.866C204.278 259.75 192.766 244.4 205.557 222.015Z" stroke="#FADFB6" stroke-width="1.27915"/>
<path d="M260.561 195.792C265.038 174.046 252.886 172.767 243.292 175.325C243.292 168.93 238.176 155.499 237.536 147.184H257.363C254.165 159.336 274.632 190.675 271.434 193.873C271.945 204.618 255.444 214.553 247.13 218.177C231.268 226.364 231.14 238.644 233.059 243.76C240.222 251.947 259.921 262.521 268.875 266.785C284.737 274.46 291.261 293.008 292.54 301.322C292.028 301.834 289.342 305.373 288.063 307.078C287.551 306.055 280.601 305.16 277.19 304.52C269.321 303.396 258.652 308.481 252.565 312.087C251.855 312.568 251.11 313.031 250.328 313.474C250.973 313.053 251.725 312.584 252.565 312.087C269.275 300.77 266.358 279.555 259.282 274.46C251.287 268.704 243.292 268.409 230.501 254.633C222.186 245.679 223.039 236.725 224.105 233.527C227.303 214.979 255.444 209.863 260.561 195.792Z" fill="#A94C60"/>
<path d="M266.957 170.209L264.398 163.174C278.213 163.174 288.063 152.514 291.261 147.184H300.215C296.121 160.487 276.337 168.077 266.957 170.209Z" fill="#A94C60"/>
<path d="M237.536 169.569C237.536 169.569 236.257 163.6 235.617 161.255C215.663 161.766 208.116 152.088 206.836 147.184H197.882C201.976 163.046 225.81 168.717 237.536 169.569Z" fill="#A94C60"/>
<path d="M233.059 301.322C237.664 283.414 213.658 274.247 201.08 271.902C227.175 280.6 226.45 293.008 222.826 298.124L233.059 301.322Z" fill="#A94C60"/>
<path d="M185.091 253.354L184.451 248.237C175.497 242.481 154.391 241.842 142.239 245.679C125.354 253.866 116.869 245.679 114.737 240.562H105.144C116.912 257.959 130.513 258.471 135.843 256.552C167.055 247.854 181.68 250.582 185.091 253.354Z" fill="#A94C60"/>
<path d="M336.031 253.993C300.215 243.76 276.763 254.846 269.515 261.668L277.19 266.785C295.098 241.202 328.356 261.029 338.589 262.948C358.544 265.506 372.06 253.78 376.324 247.598H366.731C360.591 256.808 343.706 255.699 336.031 253.993Z" fill="#A94C60"/>
<path d="M260.561 195.792C265.038 174.046 252.886 172.767 243.292 175.325C243.292 168.93 238.176 155.499 237.536 147.184H257.363C254.165 159.336 274.632 190.675 271.434 193.873C271.945 204.618 255.444 214.553 247.13 218.177C231.268 226.364 231.14 238.644 233.059 243.76C240.222 251.947 259.921 262.521 268.875 266.785C284.737 274.46 291.261 293.008 292.54 301.322C292.028 301.834 289.342 305.373 288.063 307.078C287.551 306.055 280.601 305.16 277.19 304.52C269.321 303.396 258.652 308.481 252.565 312.087C251.855 312.568 251.11 313.031 250.328 313.474C250.973 313.053 251.725 312.584 252.565 312.087C269.275 300.77 266.358 279.555 259.282 274.46C251.287 268.704 243.292 268.409 230.501 254.633C222.186 245.679 223.039 236.725 224.105 233.527C227.303 214.979 255.444 209.863 260.561 195.792Z" stroke="#AE677B" stroke-width="1.27915"/>
<path d="M266.957 170.209L264.398 163.174C278.213 163.174 288.063 152.514 291.261 147.184H300.215C296.121 160.487 276.337 168.077 266.957 170.209Z" stroke="#AE677B" stroke-width="1.27915"/>
<path d="M237.536 169.569C237.536 169.569 236.257 163.6 235.617 161.255C215.663 161.766 208.116 152.088 206.836 147.184H197.882C201.976 163.046 225.81 168.717 237.536 169.569Z" stroke="#AE677B" stroke-width="1.27915"/>
<path d="M233.059 301.322C237.664 283.414 213.658 274.247 201.08 271.902C227.175 280.6 226.45 293.008 222.826 298.124L233.059 301.322Z" stroke="#AE677B" stroke-width="1.27915"/>
<path d="M185.091 253.354L184.451 248.237C175.497 242.481 154.391 241.842 142.239 245.679C125.354 253.866 116.869 245.679 114.737 240.562H105.144C116.912 257.959 130.513 258.471 135.843 256.552C167.055 247.854 181.68 250.582 185.091 253.354Z" stroke="#AE677B" stroke-width="1.27915"/>
<path d="M336.031 253.993C300.215 243.76 276.763 254.846 269.515 261.668L277.19 266.785C295.098 241.202 328.356 261.029 338.589 262.948C358.544 265.506 372.06 253.78 376.324 247.598H366.731C360.591 256.808 343.706 255.699 336.031 253.993Z" stroke="#AE677B" stroke-width="1.27915"/>
<path d="M267.734 261.912C268.069 262.176 268.403 262.44 268.738 262.704C268.985 262.38 269.26 262.041 269.528 261.723C274.527 256.031 281.075 251.06 288.723 249.887C289.145 249.829 289.568 249.785 289.994 249.756C289.986 249.596 289.977 249.437 289.969 249.277C289.531 249.293 289.096 249.325 288.66 249.371C280.756 250.344 273.939 255.194 268.594 260.909C268.305 261.231 268.007 261.576 267.734 261.912Z" fill="black"/>
<path d="M232.824 300.633C232.981 300.666 233.137 300.699 233.294 300.732C233.522 299.905 233.667 299.049 233.741 298.177C234.033 294.722 233.199 291.175 231.558 288.105C225.459 277.085 212.598 272.971 201.089 271.336C200.263 271.222 199.418 271.118 198.552 271.024C198.532 271.183 198.511 271.341 198.491 271.5C199.347 271.628 200.183 271.766 200.998 271.912C212.389 273.978 224.735 278.333 230.429 288.707C231.972 291.601 232.916 294.841 232.974 298.15C232.987 298.985 232.942 299.815 232.824 300.633Z" fill="black"/>
<path d="M229.968 273.606C229.897 273.749 229.825 273.892 229.754 274.035C230.326 274.38 230.915 274.768 231.461 275.156C233.687 276.738 235.714 278.556 237.559 280.536C244.149 287.409 246.925 297.523 244.809 306.924C244.672 307.596 244.519 308.251 244.341 308.93C244.495 308.975 244.648 309.019 244.802 309.064C245.016 308.386 245.205 307.73 245.377 307.054C248.017 297.629 245.379 286.8 238.496 279.665C236.577 277.604 234.34 275.837 231.865 274.503C231.257 274.177 230.603 273.863 229.968 273.606Z" fill="black"/>
<path d="M239.607 262.122C239.505 262.246 239.404 262.37 239.303 262.494C240.086 263.203 240.918 263.859 241.783 264.469C245.253 266.91 249.155 268.621 253.032 270.177C256.158 271.457 259.389 272.585 262.135 274.337C270.997 280.679 277.449 291.45 276.686 302.67C276.619 303.699 276.496 304.724 276.315 305.754C276.472 305.784 276.629 305.814 276.786 305.845C277.005 304.805 277.165 303.765 277.267 302.717C278.402 291.244 272.041 279.993 262.824 273.304C259.858 271.389 256.635 270.275 253.508 268.99C249.639 267.437 245.768 265.923 242.2 263.825C241.31 263.299 240.441 262.736 239.607 262.122Z" fill="black"/>
<path d="M258.197 176.464C258.067 176.558 257.938 176.652 257.808 176.745C258.695 178.064 259.411 179.508 259.928 181.003C262.107 187.041 260.494 193.776 256.803 198.875C252.114 205.451 245.116 210.048 237.905 213.811L237.879 213.826C225.162 220.564 216.786 238.623 226.673 250.931C227.585 252.28 228.581 253.546 229.68 254.79C229.801 254.685 229.922 254.581 230.043 254.476C228.983 253.223 228.028 251.953 227.159 250.61C217.805 238.336 226.11 221.393 238.473 214.854L238.446 214.868C245.775 211.105 252.941 206.48 257.85 199.609C261.733 194.297 263.277 186.897 260.647 180.733C260.026 179.204 259.196 177.757 258.197 176.464Z" fill="black"/>
<path d="M214.664 212.606C214.562 212.483 214.46 212.359 214.358 212.236C213.548 212.837 212.741 213.49 211.962 214.17C208.861 216.879 206.126 220.017 203.882 223.492C195.274 235.253 196.17 253.477 207.579 262.991C208.319 263.701 209.065 264.367 209.877 265.048C209.982 264.927 210.087 264.806 210.191 264.685C209.411 263.985 208.696 263.301 207.989 262.577C197.126 252.75 196.659 235.697 204.958 224.185C207.141 220.803 209.67 217.64 212.489 214.727C213.198 213.997 213.931 213.281 214.664 212.606Z" fill="black"/>
<path d="M241.589 150.278C241.56 150.223 241.511 150.18 241.451 150.16C241.392 150.14 241.327 150.144 241.271 150.171C241.215 150.198 241.172 150.246 241.151 150.305C241.13 150.364 241.133 150.429 241.158 150.486C241.613 151.549 242.054 152.632 242.471 153.713C244.141 158.045 245.501 162.482 246.389 167.006C250.732 182.816 241.416 200.773 224.871 204.259C223.749 204.594 222.668 204.88 221.496 205.151C221.435 205.165 221.381 205.203 221.347 205.256C221.312 205.31 221.301 205.374 221.314 205.436C221.327 205.498 221.365 205.552 221.418 205.586C221.471 205.62 221.535 205.632 221.597 205.62C222.786 205.381 223.886 205.127 225.03 204.82C232.907 202.762 240.703 198.359 244.844 190.979C249.044 183.659 249.225 174.787 247.644 166.761C246.735 162.129 245.179 157.651 243.177 153.41C242.677 152.352 242.144 151.3 241.589 150.278Z" fill="black"/>
<path d="M37.988 181.082C27.2431 173.918 23.2777 184.066 22.6381 190.036C7.7999 195.152 2.38481 206.665 2.17163 212.421C0.124983 228.282 16.882 238.004 25.836 238.644H139.681C176.009 237.62 179.121 215.192 176.137 204.106C169.485 180.57 148.208 177.671 138.402 179.163C140.96 147.952 108.981 136.311 90.4333 136.311C48.2212 138.87 38.4144 167.864 37.988 181.082Z" fill="#77DD82" stroke="black" stroke-width="3.83746"/>
<path d="M64.2108 190.036C64.2108 192.862 61.92 195.152 59.0942 195.152C56.2683 195.152 53.9775 192.862 53.9775 190.036C53.9775 187.21 56.2683 184.919 59.0942 184.919C61.92 184.919 64.2108 187.21 64.2108 190.036Z" fill="#FDFDF2"/>
<circle cx="143.518" cy="198.99" r="5.11662" fill="#FDFDF2"/>
<circle cx="104.504" cy="165.092" r="5.7562" fill="#FDFDF2"/>
<circle cx="112.818" cy="175.965" r="3.83746" fill="#FDFDF2"/>
<circle cx="32.8713" cy="207.304" r="4.47704" fill="#FDFDF2"/>
<path d="M40.5463 197.071C20.7194 193.233 11.1258 206.025 4.72998 213.06C6.00914 200.269 19.4403 193.233 24.5569 191.954C26.4756 175.325 35.4297 182.361 39.9067 184.919C43.7442 132.474 103.864 133.113 121.133 147.824C69.9669 134.392 41.6123 174.686 40.5463 197.071Z" fill="#F6FAD5" stroke="#F6FAD5" stroke-width="1.27915"/>
<path d="M53.3378 219.456C21.1032 222.526 7.71468 217.324 4.72998 213.7C2.81121 222.654 14.3237 238.004 29.0339 236.085H150.554C162.706 234.806 186.37 218.177 167.183 191.954C165.904 219.456 132.646 222.014 120.494 219.456C114.098 229.05 103.865 224.573 100.027 219.456H64.2107C65.234 214.34 61.226 212.634 59.094 212.421C52.4424 211.398 52.4851 216.685 53.3378 219.456Z" fill="#54AF90" stroke="#54AF90" stroke-width="1.27915"/>
<path d="M100.097 215.619C99.6707 218.39 100.992 224.189 109.691 225.212C112.675 225.639 119.029 224.573 120.564 216.898" stroke="black" stroke-width="3.83746" stroke-linecap="round"/>
<path d="M114.464 111.368C109.859 84.2497 140.96 70.0084 156.31 66.5973C152.216 58.4108 155.67 52.7398 158.228 50.6079C164.368 45.4913 173.578 50.6079 175.497 53.8058C189.824 12.3611 226.663 2 243.292 2C301.494 2.63958 311.727 51.8871 311.087 46.7705C310.448 41.6539 329.062 37.6501 332.194 52.5266C334.752 64.6786 327.716 64.039 322.6 67.8765C343.706 67.8765 380.801 81.9472 376.324 111.368C372.743 134.904 347.543 143.347 335.391 144.626H154.757C143.245 144.839 119.069 138.486 114.464 111.368Z" fill="#77DD82" stroke="black" stroke-width="3.83746"/>
<circle cx="268.236" cy="39.7351" r="7.03535" fill="#FDFDF2"/>
<circle cx="205.557" cy="79.3889" r="5.7562" fill="#FDFDF2"/>
<circle cx="282.946" cy="50.6079" r="3.83746" fill="#FDFDF2"/>
<path d="M176.137 76.191C133.385 69.5493 121.001 93.6885 116.656 104.332C117.935 82.5866 146.077 71.0744 159.508 67.8765C147.356 46.7705 171.02 46.7704 176.137 58.9224C199.801 -6.95418 259.282 0.0811667 280.388 14.1519C216.43 -5.03545 182.436 46.1756 176.137 76.191Z" fill="#F6FAD5" stroke="#F6FAD5" stroke-width="1.27915" stroke-linecap="round"/>
<path d="M176.696 120.322C139.395 125.95 123.043 113.286 116.656 106.891C117.933 132.474 141.566 141.428 151.786 142.707H335.738C386.836 129.276 377.604 93.4595 360.335 82.5867C360.335 116.484 318.067 122.667 300.608 121.601C293.582 132.474 284.001 126.718 280.808 121.601L223.323 120.322C220.129 110.728 209.271 116.484 209.271 120.322H193.942C189.47 127.357 179.89 123.52 176.696 120.322Z" fill="#54AF90" stroke="#54AF90" stroke-width="1.27915"/>
<path d="M287.423 78.1097C298.296 55.0849 326.437 60.8411 328.356 49.3287C334.752 64.6786 323.879 61.3274 317.483 69.0024C310.32 66.9557 294.459 74.4854 287.423 78.1097Z" fill="#54AF90" stroke="#54AF90" stroke-width="1.27915"/>
<path d="M175.497 115.205C175.071 117.977 176.393 123.776 185.091 124.799C188.076 125.225 194.429 124.159 195.964 116.484" stroke="black" stroke-width="3.83746" stroke-linecap="round"/>
<path d="M280.458 118.403C280.031 121.175 281.353 126.973 290.051 127.997C293.036 128.423 299.389 127.357 300.924 119.682" stroke="black" stroke-width="3.83746" stroke-linecap="round"/>
<path d="M327.077 172.127C323.24 175.965 325.798 180.442 328.996 183.64C321.321 183.64 315.565 185.492 311.088 188.117C292.54 198.99 292.966 216.471 295.098 223.294C297.145 235.062 313.646 243.121 321.96 244.4H449.236C468.168 242.865 475.033 229.689 476.099 223.294C481.215 200.78 463.307 192.168 453.713 190.675C457.807 187.094 458.404 184.493 458.19 183.64C458.702 173.918 448.597 176.178 443.48 178.523C431.2 144.754 405.532 138.443 394.233 139.509C356.881 142.067 342.853 164.453 340.508 175.325C334.368 167.65 329.512 169.692 327.077 172.127Z" fill="#77DD82" stroke="black" stroke-width="3.83746"/>
<circle cx="407.664" cy="172.767" r="7.03535" fill="#FDFDF2"/>
<circle cx="362.893" cy="185.559" r="5.7562" fill="#FDFDF2"/>
<circle cx="320.681" cy="206.025" r="5.7562" fill="#FDFDF2"/>
<circle cx="419.816" cy="181.082" r="3.83746" fill="#FDFDF2"/>
<path d="M296.509 210.957L296.377 211.142C298.936 199.629 311.727 183.762 332.833 185.681C318.762 175.448 332.833 164.575 341.148 180.565C339.229 161.377 386.558 126.078 419.816 149.742C371.847 139.509 345.625 172.128 342.427 191.315C315.58 184.252 302.946 201.944 296.509 210.957Z" fill="#F6FAD5" stroke="#F6FAD5" stroke-width="1.27915"/>
<path d="M468.179 199.126C470.546 200.985 472.642 204.266 473.957 208.19C475.275 212.125 475.829 216.769 475.05 221.4C474.27 226.039 472.153 230.665 468.138 234.536C464.125 238.406 458.248 241.491 449.999 243.108L449.938 243.12H322.518L322.439 243.1C317.043 241.697 309.235 238.429 303.338 233.156C297.423 227.866 293.379 220.496 295.756 210.986L297.013 211.07C297.3 213.654 299.587 217.522 305.885 220.194C312.084 222.825 322.126 224.265 337.751 222.122C337.246 220.112 337.89 218.371 339.151 217.08C340.537 215.661 342.649 214.793 344.761 214.582C346.872 214.371 349.102 214.805 350.692 216.138C352.183 217.387 353.012 219.343 352.748 222.014H408.303V222.653C408.303 224.662 409.345 226.581 411.043 228.127C412.738 229.671 415.044 230.798 417.447 231.218C419.848 231.637 422.302 231.343 424.331 230.111C426.346 228.887 428.016 226.691 428.785 223.157L428.908 222.59L429.484 222.658C434.767 223.28 443.083 221.753 450.657 217.895C458.224 214.04 464.927 207.923 467.166 199.465L467.415 198.525L468.179 199.126ZM449.876 177.884C452.984 177.884 454.973 178.657 455.964 180.064C456.957 181.472 456.778 183.273 456.149 184.909C455.512 186.566 454.358 188.215 453.124 189.491C452.504 190.131 451.852 190.69 451.219 191.113C450.595 191.531 449.948 191.845 449.341 191.946L449.196 191.97L449.055 191.929C444.937 190.718 439.736 192.018 434.718 194.219C429.732 196.406 425.07 199.418 422.093 201.438L420.736 202.359L421.111 200.762C422.445 195.093 427.242 190.074 432.797 186.155C438.373 182.223 444.835 179.314 449.698 177.909L449.785 177.884H449.876Z" fill="#54AF90"/>
<path d="M408.373 222.015C407.947 224.786 409.269 230.585 417.967 231.608C420.952 232.035 427.305 230.969 428.84 223.294" stroke="black" stroke-width="3.83746" stroke-linecap="round"/>
</svg>
