<!-- Tree 1 -->

<svg width="288" height="293" viewBox="0 0 288 293" fill="none" xmlns="http://www.w3.org/2000/svg">
<path d="M109.677 154.35C99.1128 157.864 134.51 145.78 133.998 134.523C133.899 132.936 133.67 130.333 133.3 127.488C104.751 117.894 101.583 109.462 102.251 102H110.251C112.251 114.5 124.251 112 130.619 115.336C129.398 111.181 128.055 104.985 128.881 101.265H153.185C152.261 104.963 152.821 110.295 154.652 116.615C155.737 120.363 157.269 124.458 159.202 128.767C160.776 132.274 163.877 135.5 164.698 139.64C166.751 150 163.251 152.5 159.202 157.5C155.718 158.333 146.751 161.5 144.751 164C128.751 152.5 119.751 151 109.677 154.35Z" fill="#BA6E5C"/>
<path d="M130.619 115.336C130.91 116.325 131.194 117.198 131.44 117.894C132.26 120.63 132.874 124.219 133.3 127.488M130.619 115.336C129.398 111.181 128.055 104.985 128.881 101.265H153.185C152.261 104.963 152.821 110.295 154.652 116.615C155.737 120.363 157.269 124.458 159.202 128.767C160.776 132.274 163.877 135.5 164.698 139.64C166.751 150 163.251 152.5 159.202 157.5C155.718 158.333 146.751 161.5 144.751 164C128.751 152.5 119.751 151 109.677 154.35C99.1128 157.864 134.51 145.78 133.998 134.523C133.899 132.936 133.67 130.333 133.3 127.488M130.619 115.336C124.251 112 112.251 114.5 110.251 102H102.251C101.583 109.462 104.751 117.894 133.3 127.488" stroke="black" stroke-width="3.83746"/>
<path d="M116.26 155.608C89.6127 162.999 85.5198 179.851 82.1753 199.121C82.8149 178.654 89.8503 169.061 96.8859 163.304C106.479 154.35 136.539 154.35 136.539 131.965C138.305 143.146 129.241 149.454 120.807 153.878C119.368 154.633 117.826 155.173 116.26 155.608Z" fill="#FADFB6"/>
<path d="M98.8043 178.015C91.769 192.725 91.769 208.075 102.642 220.866C97.5252 215.75 86.0128 200.4 98.8043 178.015Z" fill="#FADFB6"/>
<path d="M116.26 155.608C89.6127 162.999 85.5198 179.851 82.1753 199.121C82.8149 178.654 89.8503 169.061 96.8859 163.304C106.479 154.35 136.539 154.35 136.539 131.965C138.305 143.146 129.241 149.454 120.807 153.878C119.368 154.633 117.826 155.173 116.26 155.608Z" stroke="#FADFB6" stroke-width="1.27915"/>
<path d="M98.8043 178.015C91.769 192.725 91.769 208.075 102.642 220.866C97.5252 215.75 86.0128 200.4 98.8043 178.015Z" stroke="#FADFB6" stroke-width="1.27915"/>
<path d="M126.071 256.633C126.228 256.666 126.384 256.699 126.541 256.732C126.769 255.905 126.914 255.049 126.988 254.177C127.281 250.722 126.446 247.175 124.805 244.105C118.706 233.085 105.845 228.971 94.3365 227.336C93.5101 227.222 92.6646 227.118 91.7995 227.024C91.779 227.183 91.7586 227.341 91.7381 227.5C92.5942 227.628 93.4298 227.766 94.2454 227.912C105.636 229.978 117.982 234.333 123.676 244.707C125.219 247.601 126.163 250.841 126.221 254.15C126.234 254.985 126.189 255.815 126.071 256.633Z" fill="black"/>
<path d="M123.215 229.606C123.144 229.749 123.072 229.892 123.001 230.035C123.574 230.38 124.162 230.768 124.708 231.156C126.934 232.738 128.961 234.556 130.806 236.536C137.396 243.409 140.172 253.523 138.056 262.924C137.919 263.596 137.766 264.251 137.588 264.93C137.742 264.975 137.895 265.019 138.049 265.064C138.263 264.386 138.452 263.73 138.624 263.054C141.264 253.629 138.626 242.8 131.743 235.665C129.824 233.604 127.587 231.837 125.112 230.503C124.504 230.177 123.85 229.863 123.215 229.606Z" fill="black"/>
<path d="M132.854 218.122C132.753 218.246 132.651 218.37 132.55 218.494C133.333 219.203 134.166 219.859 135.03 220.469C138.5 222.91 142.403 224.621 146.279 226.177C149.406 227.457 152.636 228.585 155.382 230.337C164.244 236.679 170.696 247.45 169.933 258.67C169.866 259.699 169.743 260.724 169.562 261.754C169.719 261.784 169.876 261.814 170.033 261.845C170.252 260.805 170.412 259.765 170.514 258.717C171.649 247.244 165.288 235.993 156.071 229.304C153.105 227.389 149.882 226.275 146.755 224.99C142.886 223.437 139.015 221.923 135.447 219.825C134.557 219.299 133.688 218.736 132.854 218.122Z" fill="black"/>
<path d="M151.444 132.464C151.315 132.558 151.185 132.652 151.055 132.745C151.942 134.064 152.658 135.507 153.175 137.003C155.354 143.041 153.742 149.776 150.05 154.875C145.361 161.451 138.363 166.048 131.152 169.811L131.126 169.826C118.409 176.564 110.034 194.622 119.92 206.931C120.832 208.28 121.828 209.546 122.927 210.79C123.048 210.685 123.169 210.581 123.29 210.476C122.23 209.223 121.275 207.953 120.406 206.61C111.052 194.336 119.357 177.393 131.72 170.854L131.693 170.868C139.022 167.105 146.188 162.48 151.098 155.609C154.98 150.297 156.524 142.897 153.894 136.733C153.273 135.204 152.443 133.757 151.444 132.464Z" fill="black"/>
<path d="M107.911 168.606C107.809 168.483 107.707 168.359 107.606 168.236C106.795 168.837 105.988 169.49 105.209 170.17C102.108 172.879 99.3727 176.017 97.1296 179.492C88.5211 191.253 89.417 209.477 100.826 218.991C101.567 219.701 102.313 220.367 103.124 221.048C103.229 220.927 103.334 220.806 103.438 220.685C102.658 219.985 101.944 219.301 101.236 218.577C90.3729 208.75 89.9059 191.697 98.205 180.185C100.388 176.803 102.917 173.64 105.736 170.727C106.445 169.997 107.178 169.281 107.911 168.606Z" fill="black"/>
<path d="M134.836 106.278C134.807 106.223 134.758 106.18 134.698 106.16C134.639 106.14 134.574 106.144 134.518 106.171C134.463 106.198 134.419 106.246 134.398 106.305C134.377 106.364 134.38 106.429 134.405 106.486C134.405 106.486 134.405 106.486 134.405 106.486C134.86 107.549 135.301 108.632 135.718 109.713C137.388 114.045 138.748 118.482 139.636 123.006C143.979 138.816 134.663 156.773 118.118 160.259C116.997 160.594 115.915 160.88 114.743 161.151C114.682 161.165 114.628 161.203 114.594 161.256C114.559 161.31 114.548 161.374 114.561 161.436C114.574 161.498 114.612 161.552 114.665 161.586C114.718 161.62 114.782 161.632 114.844 161.62C114.844 161.62 114.844 161.62 114.844 161.62C116.033 161.381 117.134 161.127 118.277 160.82C126.154 158.762 133.95 154.359 138.091 146.979C142.291 139.659 142.472 130.787 140.891 122.761C139.982 118.129 138.426 113.651 136.424 109.41C135.924 108.352 135.391 107.3 134.836 106.278Z" fill="black"/>
<ellipse cx="143.905" cy="280.552" rx="143.905" ry="12.152" fill="#010007"/>
<path d="M43.4912 256.888L28.7809 201.245C19.0593 202.268 16.2025 195.702 15.9893 192.29V176.941C15.4777 167.731 24.3038 166.281 28.7809 166.707H259.668C268.878 167.219 270.754 173.316 270.541 176.301V191.651C271.053 200.861 262.227 201.884 257.75 201.245L243.679 256.888C240.481 265.842 231.953 269.679 227.05 270.319H221.294C217.712 279.529 209.355 280.552 205.304 280.552C194.559 281.575 191.02 274.583 189.954 270.319H93.3782C93.3782 273.517 87.8778 280.04 78.6679 280.552C69.458 281.064 65.0236 273.943 63.9576 270.319H60.7597C51.0382 270.831 45.1967 261.578 43.4912 256.888Z" fill="#FD9475"/>
<path d="M28.7809 201.245L43.4912 256.888C45.1967 261.578 51.0382 270.831 60.7597 270.319H63.9576M28.7809 201.245H257.75M28.7809 201.245C19.0593 202.268 16.2025 195.702 15.9893 192.29V176.941C15.4777 167.731 24.3038 166.281 28.7809 166.707H259.668C268.878 167.219 270.754 173.316 270.541 176.301V191.651C271.053 200.861 262.227 201.884 257.75 201.245M257.75 201.245L243.679 256.888C240.481 265.842 231.953 269.679 227.05 270.319H221.294M63.9576 270.319C65.0236 273.943 69.458 281.064 78.6679 280.552C87.8778 280.04 93.3782 273.517 93.3782 270.319M63.9576 270.319H93.3782M93.3782 270.319H189.954M189.954 270.319C191.02 274.583 194.559 281.575 205.304 280.552C209.355 280.552 217.712 279.529 221.294 270.319M189.954 270.319H221.294" stroke="black" stroke-width="3.83746" stroke-linecap="round"/>
<path d="M132.393 240.259C133.245 244.096 136.486 249.852 142.626 242.178" stroke="black" stroke-width="3.83746" stroke-linecap="round"/>
<path d="M153.499 240.259C152.433 244.096 148.766 249.852 142.626 242.178" stroke="black" stroke-width="3.83746" stroke-linecap="round"/>
<ellipse cx="107.449" cy="233.863" rx="6.39577" ry="8.95408" fill="black"/>
<ellipse cx="175.244" cy="233.863" rx="6.39577" ry="8.95408" fill="black"/>
<path d="M45.0222 253.02L35.1768 215.955H37.7351L43.4913 238.34C46.6891 250.931 50.2113 263.284 58.2015 267.761C53.4598 266.812 50.1242 263.755 47.9342 260.412C46.474 258.183 45.7062 255.595 45.0222 253.02Z" fill="#FBF3CC" stroke="#FBF3CC" stroke-width="1.27915"/>
<path d="M218.632 216.211H35.1859L31.9788 203.163H254.552L243.039 249.852C241.76 262.644 232.53 266.878 228.253 268.4H195.541C210.239 262.55 214.114 241.159 218.583 216.484L218.632 216.211Z" fill="#E5686C" stroke="#E5686C" stroke-width="1.27915"/>
<path d="M20.4664 177.58L20.4664 196.767C19.1873 196.128 18.5476 194.209 18.5476 189.732V174.382C18.5476 171.824 21.1059 169.137 23.6642 168.626H228.329L216.305 171.24C214.519 171.628 212.697 171.824 210.87 171.824H33.2579C19.8268 171.377 20.4664 175.022 20.4664 177.58Z" fill="#FBF3CC" stroke="#FBF3CC" stroke-width="1.27915"/>
<path d="M207.863 199.326C234.085 192.93 230.248 184.616 228.7 168.626H262.131C264.703 168.626 269.203 172.545 268.56 177.771V194.849C267.921 198.686 264.785 199.326 262.131 199.326H207.863Z" fill="#E5686C" stroke="#E5686C" stroke-width="1.27915"/>
<path d="M33.2581 184.763C33.2581 181.503 35.9013 178.859 39.1618 178.859H42.7041C45.9647 178.859 48.6079 181.503 48.6079 184.763V184.763C48.6079 188.024 45.9647 190.667 42.7041 190.667H39.1618C35.9013 190.667 33.2581 188.024 33.2581 184.763V184.763Z" fill="#FBF3CC"/>
<circle cx="63.9576" cy="185.255" r="3.83746" fill="#FBF3CC"/>
<path d="M211.251 167.209H74.2507C87.3817 152.327 97.8865 156.704 100.513 161.081C103.139 154.078 112.622 152.619 116.27 152.327C130.977 150.227 141.073 158.747 144.283 163.27C155.838 153.816 167.189 156.413 171.42 158.893C171.42 153.991 178.131 152.473 181.487 152.327C191.642 151.977 192.43 156.559 191.554 158.893C202.409 157.142 209.208 163.708 211.251 167.209Z" fill="#77DD82" stroke="black" stroke-width="2.6262"/>
<path d="M101.584 163.291C106.64 159.331 117.583 152.765 131.589 155.474C123.205 152 103.79 152.869 101.584 163.291Z" fill="#FBF3CC"/>
<path d="M96.5733 159.768C91.3209 155.829 81.72 161.84 78.1899 165.458H83.0046C84.3177 162.832 91.7586 159.768 96.5733 159.768Z" fill="#FBF3CC"/>
<path d="M101.584 163.291C106.64 159.331 117.583 152.765 131.589 155.474C123.205 152 103.79 152.869 101.584 163.291Z" stroke="#FBF3CC" stroke-width="0.875399"/>
<path d="M96.5733 159.768C91.3209 155.829 81.72 161.84 78.1899 165.458H83.0046C84.3177 162.832 91.7586 159.768 96.5733 159.768Z" stroke="#FBF3CC" stroke-width="0.875399"/>
<path d="M131.589 155.91C127.387 160.994 118.725 163.27 115.661 165.458H207.749C202.847 158.922 193.159 159.239 188.928 159.995C191.992 154.954 186.74 154.516 186.302 154.516C184.989 155.878 180.174 157.726 172.295 160.903C171.858 161.811 153.037 164.081 143.407 164.988C142.007 160.994 134.945 157.272 131.589 155.91Z" fill="#54AF90" stroke="#54AF90" stroke-width="0.875399"/>
<path d="M41.58 80.2393C38.2857 60.8396 60.5346 50.6517 71.5155 48.2115C68.5873 42.355 71.058 38.2981 72.8882 36.773C77.2805 33.1127 83.8691 36.773 85.2417 39.0607C95.4906 9.41213 121.845 2 133.741 2C175.377 2.45754 182.698 37.6881 182.24 34.0278C181.783 30.3675 195.098 27.5033 197.339 38.1456C199.169 46.8389 194.136 46.3813 190.476 49.1265C205.575 49.1265 232.112 59.1924 228.909 80.2393C226.347 97.0767 208.32 103.116 199.627 104.031H70.405C62.1693 104.184 44.8743 99.6389 41.58 80.2393Z" fill="#77DD82" stroke="black" stroke-width="2.74524"/>
<circle cx="151.585" cy="28.9948" r="5.03293" fill="#FDFDF2"/>
<circle cx="106.746" cy="57.3623" r="4.11785" fill="#FDFDF2"/>
<circle cx="162.109" cy="36.7734" r="2.74561" fill="#FDFDF2"/>
<path d="M85.6993 55.0746C55.1159 50.3233 46.2563 67.5919 43.1482 75.2062C44.0633 59.6499 64.195 51.4143 73.8033 49.1266C65.1101 34.0278 82.039 34.0278 85.6993 42.7211C102.628 -4.4056 145.179 0.627331 160.278 10.6932C114.524 -3.03298 90.2061 33.6023 85.6993 55.0746Z" fill="#F6FAD5" stroke="#F6FAD5" stroke-width="0.915078" stroke-linecap="round"/>
<path d="M86.0995 86.6448C59.4148 90.6711 47.7175 81.6119 43.1482 77.0365C44.062 95.338 60.9684 101.744 68.2793 102.659H199.875C236.429 93.0503 229.824 67.4281 217.471 59.65C217.471 83.8995 187.233 88.3224 174.744 87.5599C169.717 95.338 162.863 91.2202 160.579 87.5599L119.455 86.6448C117.171 79.7817 109.403 83.8995 109.403 86.6448H98.4365C95.238 91.6777 88.3841 88.9325 86.0995 86.6448Z" fill="#54AF90" stroke="#54AF90" stroke-width="0.915078"/>
<path d="M165.311 56.4472C173.089 39.9758 193.221 44.0936 194.594 35.8579C199.169 46.8389 191.391 44.4415 186.816 49.932C181.691 48.4679 170.344 53.8544 165.311 56.4472Z" fill="#54AF90" stroke="#54AF90" stroke-width="0.915078"/>
<path d="M86.3018 82C85.9904 83.719 86.9559 87.3156 93.3091 87.9503C95.4892 88.2147 100.13 87.5536 101.251 82.7934" stroke="black" stroke-width="2.74524" stroke-linecap="round"/>
<path d="M160.328 85.2722C160.023 87.2548 160.969 91.4032 167.191 92.1352C169.327 92.4403 173.872 91.6777 174.97 86.1872" stroke="black" stroke-width="2.74524" stroke-linecap="round"/>
</svg>
