<svg width="288" height="347" viewBox="0 0 288 347" fill="none" xmlns="http://www.w3.org/2000/svg">
<path d="M40.3293 80.2393C37.035 60.8396 59.2839 50.6517 70.2648 48.2115C67.3366 42.355 69.8073 38.2981 71.6374 36.773C76.0298 33.1127 82.6183 36.773 83.991 39.0607C94.2398 9.41213 120.594 2 132.49 2C174.126 2.45754 181.447 37.6881 180.989 34.0278C180.532 30.3675 193.848 27.5033 196.088 38.1456C197.918 46.8389 192.885 46.3813 189.225 49.1265C204.324 49.1265 230.861 59.1924 227.658 80.2393C225.096 97.0767 207.069 103.116 198.376 104.031H69.1543C60.9185 104.184 43.6236 99.6389 40.3293 80.2393Z" fill="#77DD82" stroke="black" stroke-width="2.74524"/>
<circle cx="150.334" cy="28.9948" r="5.03293" fill="#FDFDF2"/>
<circle cx="105.495" cy="57.3623" r="4.11785" fill="#FDFDF2"/>
<circle cx="160.858" cy="36.7734" r="2.74561" fill="#FDFDF2"/>
<path d="M84.4486 55.0746C53.8651 50.3233 45.0055 67.5919 41.8975 75.2062C42.8125 59.6499 62.9443 51.4143 72.5526 49.1266C63.8593 34.0278 80.7883 34.0278 84.4486 42.7211C101.378 -4.4056 143.929 0.627331 159.028 10.6932C113.274 -3.03298 88.9553 33.6023 84.4486 55.0746Z" fill="#F6FAD5" stroke="#F6FAD5" stroke-width="0.915078" stroke-linecap="round"/>
<path d="M84.8487 86.6448C58.1641 90.6711 46.4667 81.6119 41.8975 77.0365C42.8113 95.338 59.7177 101.744 67.0285 102.659H198.624C235.178 93.0503 228.573 67.4281 216.22 59.65C216.22 83.8995 185.982 88.3224 173.493 87.5599C168.467 95.338 161.613 91.2202 159.328 87.5599L118.204 86.6448C115.92 79.7817 108.152 83.8995 108.152 86.6448H97.1858C93.9873 91.6777 87.1334 88.9325 84.8487 86.6448Z" fill="#54AF90" stroke="#54AF90" stroke-width="0.915078"/>
<path d="M164.061 56.4472C171.839 39.9758 191.97 44.0936 193.343 35.8579C197.918 46.8389 190.14 44.4415 185.565 49.932C180.44 48.4679 169.093 53.8544 164.061 56.4472Z" fill="#54AF90" stroke="#54AF90" stroke-width="0.915078"/>
<path d="M85.0511 82C84.7397 83.719 85.7051 87.3156 92.0584 87.9503C94.2385 88.2147 98.8788 87.5536 100 82.7934" stroke="black" stroke-width="2.74524" stroke-linecap="round"/>
<path d="M159.078 85.2722C158.773 87.2548 159.718 91.4032 165.941 92.1352C168.076 92.4403 172.621 91.6777 173.719 86.1872" stroke="black" stroke-width="2.74524" stroke-linecap="round"/>
<ellipse cx="143.905" cy="334.552" rx="143.905" ry="12.152" fill="#010007"/>
<path d="M43.4912 310.888L28.7809 255.245C19.0593 256.268 16.2025 249.702 15.9893 246.29V230.941C15.4777 221.731 24.3038 220.281 28.7809 220.707H259.668C268.878 221.219 270.754 227.316 270.541 230.301V245.651C271.053 254.861 262.227 255.884 257.75 255.245L243.679 310.888C240.481 319.842 231.953 323.679 227.05 324.319H221.294C217.712 333.529 209.355 334.552 205.304 334.552C194.559 335.575 191.02 328.583 189.954 324.319H93.3782C93.3782 327.517 87.8778 334.04 78.6679 334.552C69.458 335.064 65.0236 327.943 63.9576 324.319H60.7597C51.0382 324.831 45.1967 315.578 43.4912 310.888Z" fill="#FD9475"/>
<path d="M28.7809 255.245L43.4912 310.888C45.1967 315.578 51.0382 324.831 60.7597 324.319H63.9576M28.7809 255.245H257.75M28.7809 255.245C19.0593 256.268 16.2025 249.702 15.9893 246.29V230.941C15.4777 221.731 24.3038 220.281 28.7809 220.707H259.668C268.878 221.219 270.754 227.316 270.541 230.301V245.651C271.053 254.861 262.227 255.884 257.75 255.245M257.75 255.245L243.679 310.888C240.481 319.842 231.953 323.679 227.05 324.319H221.294M63.9576 324.319C65.0236 327.943 69.458 335.064 78.6679 334.552C87.8778 334.04 93.3782 327.517 93.3782 324.319M63.9576 324.319H93.3782M93.3782 324.319H189.954M189.954 324.319C191.02 328.583 194.559 335.575 205.304 334.552C209.355 334.552 217.712 333.529 221.294 324.319M189.954 324.319H221.294" stroke="black" stroke-width="3.83746" stroke-linecap="round"/>
<path d="M132.393 294.259C133.245 298.096 136.486 303.852 142.626 296.178" stroke="black" stroke-width="3.83746" stroke-linecap="round"/>
<path d="M153.499 294.259C152.433 298.096 148.766 303.852 142.626 296.178" stroke="black" stroke-width="3.83746" stroke-linecap="round"/>
<ellipse cx="107.449" cy="287.863" rx="6.39577" ry="8.95408" fill="black"/>
<ellipse cx="175.244" cy="287.863" rx="6.39577" ry="8.95408" fill="black"/>
<path d="M45.0222 307.02L35.1768 269.955H37.7351L43.4913 292.34C46.6891 304.931 50.2113 317.284 58.2015 321.761C53.4598 320.812 50.1242 317.755 47.9342 314.412C46.474 312.183 45.7062 309.595 45.0222 307.02Z" fill="#FBF3CC" stroke="#FBF3CC" stroke-width="1.27915"/>
<path d="M218.632 270.211H35.1859L31.9788 257.163H254.552L243.039 303.852C241.76 316.644 232.53 320.878 228.253 322.4H195.541C210.239 316.55 214.114 295.159 218.583 270.484L218.632 270.211Z" fill="#E5686C" stroke="#E5686C" stroke-width="1.27915"/>
<path d="M20.4664 231.58L20.4664 250.767C19.1873 250.128 18.5476 248.209 18.5476 243.732V228.382C18.5476 225.824 21.1059 223.137 23.6642 222.626H228.329L216.305 225.24C214.519 225.628 212.697 225.824 210.87 225.824H33.2579C19.8268 225.377 20.4664 229.022 20.4664 231.58Z" fill="#FBF3CC" stroke="#FBF3CC" stroke-width="1.27915"/>
<path d="M207.863 253.326C234.085 246.93 230.248 238.616 228.7 222.626H262.131C264.703 222.626 269.203 226.545 268.56 231.771V248.849C267.921 252.686 264.785 253.326 262.131 253.326H207.863Z" fill="#E5686C" stroke="#E5686C" stroke-width="1.27915"/>
<path d="M33.2581 238.763C33.2581 235.503 35.9013 232.859 39.1618 232.859H42.7041C45.9647 232.859 48.6079 235.503 48.6079 238.763C48.6079 242.024 45.9647 244.667 42.7041 244.667H39.1618C35.9013 244.667 33.2581 242.024 33.2581 238.763Z" fill="#FBF3CC"/>
<circle cx="63.9576" cy="239.255" r="3.83746" fill="#FBF3CC"/>
</svg>
