<svg width="1257" height="298" viewBox="0 0 1257 298" fill="none" xmlns="http://www.w3.org/2000/svg">
<path d="M116.759 166.695C88.8668 160.795 80.1333 140.378 79.2749 130.684L77.1322 121.466C76.84 120.208 75.7363 119.307 74.4461 119.271L42.3347 118.386C21.8662 118.386 27.2744 84.059 52.1529 89.3654C52.5769 89.4558 53.0399 89.2438 53.2448 88.8617C72.1507 53.6175 95.9058 72.732 99.7331 87.2266C99.8637 87.7212 100.364 88.037 100.87 87.9616C125.309 84.3223 126.617 114.181 114.456 118.386L87.9302 119.306C87.4956 119.321 87.1235 119.631 87.0568 120.06C85.9609 127.121 91.1623 131.367 94.8107 133.047C95.508 133.368 96.3087 133.135 96.8688 132.61C102.693 127.15 113.057 127.227 118.616 128.117C119.336 128.232 120.077 128.102 120.695 127.715L129.224 122.364C129.868 121.959 130.202 121.201 130.106 120.446C127.88 102.938 140.379 95.6644 151.349 97.4045C151.863 97.4861 152.367 97.1365 152.485 96.6293C160.863 60.4813 199.77 76.4701 199.77 97.5736C231.784 94.5464 230.553 124.062 221.758 130.684H131.607L107.313 138.342C106.542 138.585 105.888 139.147 105.636 139.916C101.425 152.741 126.718 155.596 132.891 146.665C133.578 145.672 134.614 144.873 135.821 144.873H168.996C169.488 144.873 169.9 145.278 169.94 145.768C183.718 313.684 66.5406 313.701 20.0357 269.232C18.4469 267.713 17.0194 265.852 15.8695 263.979C-60.5821 139.42 170.627 151.365 48.7827 268.309C48.0062 269.055 47.919 270.377 48.7216 271.094C76.7203 296.113 130.706 283.033 119.081 169.269C118.953 168.016 117.992 166.956 116.759 166.695Z" fill="#4A7C59"/>
<path d="M119.733 83.3837C124.399 22.3234 67.626 28.6923 28.0483 30.8653C26.4515 30.953 24.9335 30.2195 23.9941 28.9252L5.30428 3.17479C4.34465 1.85264 5.28918 0 6.92288 0H279.765C282.2 0 283.504 2.86557 281.905 4.70193L259 31L265.989 52.4333C266.323 53.4566 266.359 54.5538 266.092 55.5967L260.077 79.1632C259.815 80.1921 258.341 80.1564 258.129 79.116L253.44 56.1536C253.15 54.7368 253.19 53.2724 253.555 51.8731L259 31C190.691 24 166 36.5 169.866 66.3557C155.794 64.0853 145.825 80.861 142.6 89.5327C139.434 89.5327 133.072 94.2626 130.287 96.6276C129.232 91.7084 122.811 85.7487 119.733 83.3837Z" fill="#4A7C59"/>
<path d="M414.329 189.498C414.329 212.444 409.98 231.965 401.281 248.061C392.651 264.157 380.87 276.452 365.938 284.945C351.075 293.37 334.362 297.582 315.8 297.582C297.101 297.582 280.32 293.336 265.457 284.842C250.594 276.349 238.847 264.054 230.217 247.958C221.586 231.862 217.271 212.375 217.271 189.498C217.271 166.553 221.586 147.032 230.217 130.936C238.847 114.839 250.594 102.579 265.457 94.1542C280.32 85.6609 297.101 81.4142 315.8 81.4142C334.362 81.4142 351.075 85.6609 365.938 94.1542C380.87 102.579 392.651 114.839 401.281 130.936C409.98 147.032 414.329 166.553 414.329 189.498ZM369.226 189.498C369.226 174.635 367 162.101 362.548 151.895C358.164 141.689 351.965 133.949 343.951 128.675C335.938 123.401 326.554 120.764 315.8 120.764C305.047 120.764 295.663 123.401 287.649 128.675C279.635 133.949 273.402 141.689 268.95 151.895C264.567 162.101 262.375 174.635 262.375 189.498C262.375 204.362 264.567 216.896 268.95 227.102C273.402 237.307 279.635 245.047 287.649 250.321C295.663 255.595 305.047 258.232 315.8 258.232C326.554 258.232 335.938 255.595 343.951 250.321C351.965 245.047 358.164 237.307 362.548 227.102C367 216.896 369.226 204.362 369.226 189.498ZM406.518 120.97V84.291H579.329V120.97H514.91V294.706H470.937V120.97H406.518ZM595.2 294.706H547.528L620.166 84.291H677.496L750.031 294.706H702.359L649.653 132.374H648.009L595.2 294.706ZM592.22 211.999H704.825V246.725H592.22V211.999ZM718.486 120.97V84.291H891.298V120.97H826.879V294.706H782.905V120.97H718.486ZM1010.76 144.806C1009.94 136.518 1006.41 130.079 1000.17 125.49C993.942 120.901 985.483 118.607 974.798 118.607C967.537 118.607 961.407 119.634 956.407 121.689C951.407 123.675 947.571 126.449 944.9 130.011C942.297 133.573 940.996 137.614 940.996 142.134C940.859 145.902 941.646 149.189 943.359 151.998C945.14 154.806 947.571 157.237 950.653 159.292C953.736 161.279 957.297 163.025 961.338 164.532C965.38 165.97 969.695 167.203 974.284 168.231L993.188 172.751C1002.37 174.806 1010.79 177.546 1018.46 180.971C1026.13 184.395 1032.78 188.608 1038.39 193.608C1044.01 198.608 1048.36 204.499 1051.44 211.279C1054.59 218.06 1056.2 225.835 1056.27 234.602C1056.2 247.479 1052.92 258.643 1046.41 268.096C1039.97 277.479 1030.65 284.774 1018.46 289.979C1006.34 295.117 991.716 297.685 974.592 297.685C957.606 297.685 942.811 295.082 930.208 289.877C917.673 284.671 907.879 276.966 900.824 266.76C893.837 256.486 890.173 243.78 889.83 228.643H932.879C933.359 235.698 935.379 241.588 938.941 246.314C942.571 250.972 947.4 254.499 953.427 256.897C959.523 259.225 966.407 260.39 974.078 260.39C981.613 260.39 988.154 259.294 993.702 257.102C999.319 254.91 1003.67 251.862 1006.75 247.958C1009.83 244.054 1011.37 239.568 1011.37 234.499C1011.37 229.773 1009.97 225.8 1007.16 222.581C1004.42 219.362 1000.38 216.622 995.038 214.362C989.764 212.101 983.291 210.047 975.62 208.197L952.708 202.444C934.968 198.129 920.961 191.382 910.687 182.204C900.413 173.025 895.31 160.662 895.378 145.114C895.31 132.374 898.7 121.244 905.55 111.723C912.468 102.202 921.954 94.7706 934.009 89.428C946.064 84.0855 959.763 81.4142 975.106 81.4142C990.723 81.4142 1004.35 84.0855 1016 89.428C1027.71 94.7706 1036.82 102.202 1043.33 111.723C1049.83 121.244 1053.19 132.271 1053.39 144.806H1010.76ZM1193.02 84.291H1237.5V220.937C1237.5 236.28 1233.84 249.705 1226.51 261.212C1219.25 272.719 1209.08 281.692 1196 288.13C1182.91 294.5 1167.67 297.685 1150.28 297.685C1132.81 297.685 1117.54 294.5 1104.45 288.13C1091.37 281.692 1081.2 272.719 1073.94 261.212C1066.68 249.705 1063.05 236.28 1063.05 220.937V84.291H1107.54V217.136C1107.54 225.15 1109.28 232.273 1112.78 238.506C1116.34 244.739 1121.34 249.636 1127.78 253.198C1134.22 256.76 1141.72 258.541 1150.28 258.541C1158.91 258.541 1166.41 256.76 1172.78 253.198C1179.22 249.636 1184.18 244.739 1187.67 238.506C1191.24 232.273 1193.02 225.15 1193.02 217.136V84.291Z" fill="#4A7C59"/>
</svg>
