<svg width="283" height="295" viewBox="0 0 283 295" fill="none" xmlns="http://www.w3.org/2000/svg">
<path d="M116.759 166.695C88.8668 160.795 80.1333 140.378 79.2749 130.684L77.1322 121.466C76.84 120.208 75.7363 119.307 74.4461 119.271L42.3347 118.386C21.8662 118.386 27.2744 84.059 52.1529 89.3654C52.5769 89.4558 53.0399 89.2438 53.2448 88.8617C72.1507 53.6175 95.9058 72.732 99.7331 87.2266C99.8637 87.7212 100.364 88.037 100.87 87.9616C125.309 84.3223 126.617 114.181 114.456 118.386L87.9302 119.306C87.4956 119.321 87.1235 119.631 87.0568 120.06C85.9609 127.121 91.1623 131.367 94.8107 133.047C95.508 133.368 96.3087 133.135 96.8688 132.61C102.693 127.15 113.057 127.227 118.616 128.117C119.336 128.232 120.077 128.102 120.695 127.715L129.224 122.364C129.868 121.959 130.202 121.201 130.106 120.446C127.88 102.938 140.379 95.6644 151.349 97.4045C151.863 97.4861 152.367 97.1365 152.485 96.6293C160.863 60.4813 199.77 76.4701 199.77 97.5736C231.784 94.5464 230.553 124.062 221.758 130.684H131.607L107.313 138.342C106.542 138.585 105.888 139.147 105.636 139.916C101.425 152.741 126.718 155.596 132.891 146.665C133.578 145.672 134.614 144.873 135.821 144.873H168.996C169.488 144.873 169.9 145.278 169.94 145.768C183.718 313.684 66.5406 313.701 20.0357 269.232C18.4469 267.713 17.0194 265.852 15.8695 263.979C-60.5821 139.42 170.627 151.365 48.7827 268.309C48.0062 269.055 47.919 270.377 48.7216 271.094C76.7203 296.113 130.706 283.033 119.081 169.269C118.953 168.016 117.992 166.956 116.759 166.695Z" fill="#4A7C59"/>
<path d="M119.733 83.3837C124.399 22.3234 67.626 28.6923 28.0483 30.8653C26.4515 30.953 24.9335 30.2195 23.9941 28.9252L5.30428 3.17479C4.34465 1.85264 5.28918 0 6.92288 0H279.765C282.2 0 283.504 2.86557 281.905 4.70193L259 31L265.989 52.4333C266.323 53.4566 266.359 54.5538 266.092 55.5967L260.077 79.1632C259.815 80.1921 258.341 80.1564 258.129 79.116L253.44 56.1536C253.15 54.7368 253.19 53.2724 253.555 51.8731L259 31C190.691 24 166 36.5 169.866 66.3557C155.794 64.0853 145.825 80.861 142.6 89.5327C139.434 89.5327 133.072 94.2626 130.287 96.6276C129.232 91.7084 122.811 85.7487 119.733 83.3837Z" fill="#4A7C59"/>
</svg>
