<svg width="72" height="17" viewBox="0 0 72 17" fill="none" xmlns="http://www.w3.org/2000/svg">
<ellipse cx="8" cy="8.5" rx="8" ry="8.5" fill="black"/>
<path d="M12 5.78545C12 8.13266 10.0972 10.0355 7.75 10.0355C5.40279 10.0355 3.5 8.13266 3.5 5.78545C3.5 3.43824 5.40279 1.53545 7.75 1.53545C10.0972 1.53545 12 3.43824 12 5.78545Z" fill="#D9D9D9"/>
<ellipse cx="11" cy="12.3333" rx="2" ry="1.33333" fill="#D9D9D9"/>
<ellipse cx="64" cy="8.5" rx="8" ry="8.5" fill="black"/>
<path d="M68 5.78545C68 8.13266 66.0972 10.0355 63.75 10.0355C61.4028 10.0355 59.5 8.13266 59.5 5.78545C59.5 3.43824 61.4028 1.53545 63.75 1.53545C66.0972 1.53545 68 3.43824 68 5.78545Z" fill="#D9D9D9"/>
<ellipse cx="67" cy="12.3333" rx="2" ry="1.33333" fill="#D9D9D9"/>
</svg>
