<svg width="239" height="109" viewBox="0 0 239 109" fill="none" xmlns="http://www.w3.org/2000/svg">
<path d="M27.3792 85.2165L13.8148 33.9076C4.8505 34.8512 2.21624 28.7963 2.01966 25.6509V11.4968C1.54785 3.00426 9.68651 1.66747 13.8148 2.06064H226.717C235.21 2.53245 236.94 8.15481 236.743 10.907V25.0612C237.215 33.5537 229.076 34.4973 224.948 33.9076L211.973 85.2165C209.025 93.4731 201.161 97.0116 196.64 97.6014H191.332C188.029 106.094 180.323 107.037 176.588 107.037C166.68 107.981 163.417 101.533 162.434 97.6014H73.3803C73.3803 100.55 68.3084 106.566 59.8159 107.037C51.3234 107.509 47.2344 100.943 46.2515 97.6014H43.3027C34.3384 98.0732 28.9519 89.5414 27.3792 85.2165Z" fill="#FD9475"/>
<path d="M13.8148 33.9076L27.3792 85.2165C28.9519 89.5413 34.3384 98.0732 43.3027 97.6014H46.2515M13.8148 33.9076H224.948M13.8148 33.9076C4.8505 34.8512 2.21624 28.7963 2.01966 25.6509V11.4968C1.54785 3.00426 9.68651 1.66747 13.8148 2.06064H226.717C235.21 2.53245 236.94 8.15481 236.743 10.907V25.0612C237.215 33.5537 229.076 34.4973 224.948 33.9076M224.948 33.9076L211.973 85.2165C209.025 93.4731 201.161 97.0116 196.64 97.6014H191.332M46.2515 97.6014C47.2344 100.943 51.3234 107.509 59.8159 107.037C68.3084 106.566 73.3803 100.55 73.3803 97.6014M46.2515 97.6014H73.3803M73.3803 97.6014H162.434M162.434 97.6014C163.417 101.533 166.68 107.981 176.588 107.037C180.323 107.037 188.029 106.094 191.332 97.6014M162.434 97.6014H191.332" stroke="black" stroke-width="3.53855" stroke-linecap="round"/>
<path d="M28.7909 81.6498L19.7124 47.472H22.0714L27.3793 68.1135C30.328 79.7234 33.5759 91.114 40.9437 95.2423C36.5713 94.3678 33.4955 91.5484 31.4761 88.4662C30.1296 86.4111 29.4217 84.0244 28.7909 81.6498Z" fill="#FBF3CC" stroke="#FBF3CC" stroke-width="1.17952"/>
<path d="M188.878 47.7079H19.7209L16.7636 35.6768H221.999L211.384 78.7291C210.204 90.5243 201.693 94.4285 197.75 95.8321H167.585C181.139 90.438 184.711 70.7125 188.832 47.9597L188.878 47.7079Z" fill="#E5686C" stroke="#E5686C" stroke-width="1.17952"/>
<path d="M6.14789 12.0865L6.14796 29.7792C4.96843 29.1895 4.37857 27.4202 4.3786 23.2919V9.13771C4.3786 6.77868 6.73765 4.30136 9.09668 3.8299H197.819L186.731 6.24027C185.085 6.59818 183.405 6.77868 181.72 6.77868H17.943C5.55813 6.36641 6.14792 9.72745 6.14789 12.0865Z" fill="#FBF3CC" stroke="#FBF3CC" stroke-width="1.17952"/>
<path d="M178.947 32.1383C203.127 26.2407 199.588 18.5738 198.162 3.8299H228.988C231.36 3.8299 235.509 7.44373 234.917 12.2622V28.01C234.327 31.5485 231.435 32.1383 228.988 32.1383H178.947Z" fill="#E5686C" stroke="#E5686C" stroke-width="1.17952"/>
<path d="M17.9431 18.7099C17.9431 15.7033 20.3804 13.266 23.387 13.266H26.6534C29.66 13.266 32.0973 15.7033 32.0973 18.7099C32.0973 21.7165 29.66 24.1538 26.6534 24.1538H23.387C20.3804 24.1538 17.9431 21.7165 17.9431 18.7099Z" fill="#FBF3CC"/>
<circle cx="46.2515" cy="19.1636" r="3.53855" fill="#FBF3CC"/>
</svg>
