<svg width="265" height="119" viewBox="0 0 265 119" fill="none" xmlns="http://www.w3.org/2000/svg">
<path d="M46.3879 72.617L66.3565 38.8478C59.89 38.8478 39.7492 45.4167 23.4911 50.4786C8.62939 55.1058 3.41653 48.2624 8.39402 33.5142L14.3564 15.8478C21.3564 -2.15221 37.3564 2.55518 39.8564 2.5552L241.856 2.5552C255.356 4.84779 255.856 8.49064 257.856 15.3478C259.319 20.3617 260.694 26.5976 261.799 32.159C263.628 41.3581 259.491 47.5721 250.173 46.5037C233.113 44.5476 206.431 39.2871 203.356 38.8478L223.414 73.3553C230.558 85.6452 232.146 104.328 218.05 106.167H212.294C208.712 115.377 200.355 116.4 196.304 116.4C185.559 117.423 182.02 110.431 180.954 106.167H84.3783C84.3783 109.365 78.8779 115.888 69.668 116.4C60.4581 116.912 56.0237 109.791 54.9577 106.167H51.7598C36.9827 106.944 38.856 85.3543 46.3879 72.617Z" fill="#FF6C6E"/>
<path d="M66.3565 38.8478L46.3879 72.617C38.856 85.3543 36.9827 106.944 51.7598 106.167V106.167H54.9577M66.3565 38.8478H203.356M66.3565 38.8478C59.89 38.8478 39.7492 45.4167 23.4911 50.4786C8.62939 55.1058 3.41653 48.2624 8.39402 33.5142L14.3564 15.8478C21.3564 -2.15221 37.3564 2.55518 39.8564 2.5552L241.856 2.5552C255.356 4.84779 255.856 8.49064 257.856 15.3478C259.319 20.3617 260.694 26.5976 261.799 32.159C263.628 41.3581 259.491 47.5721 250.173 46.5037C233.113 44.5476 206.431 39.2871 203.356 38.8478M203.356 38.8478L223.414 73.3553C230.558 85.6452 232.146 104.328 218.05 106.167V106.167H212.294M54.9577 106.167C56.0237 109.791 60.4581 116.912 69.668 116.4C78.8779 115.888 84.3783 109.365 84.3783 106.167M54.9577 106.167H84.3783M84.3783 106.167H180.954M180.954 106.167C182.02 110.431 185.559 117.423 196.304 116.4C200.355 116.4 208.712 115.377 212.294 106.167M180.954 106.167H212.294" stroke="black" stroke-width="3.83746" stroke-linecap="round"/>
<path d="M48.8564 103.348C42.3546 101.903 42.6375 92.6295 43.861 85.7076C44.617 81.4305 46.4622 77.4521 48.6507 73.7005L48.8564 73.3478L50.9814 69.8478L56.6064 60.3478L67.8564 41.3478L70.8564 41.3478L57.3564 64.8478C48.8564 79.3478 40.3564 86.8478 48.8564 103.348Z" fill="#FBF3CC" stroke="#FBF3CC" stroke-width="1.27915"/>
<path d="M192.356 53.8478L66.3564 52.3478L71.8564 41.3478H201.856L223.356 78.8478C229.856 95.8478 223.53 102.726 219.254 104.248H198.356C213.109 98.3766 201.856 76.3478 192.356 53.8478Z" fill="#DD5B5F" stroke="#DD5B5F" stroke-width="1.27915"/>
<path d="M225.171 7.83394L33.8564 6.84778C20.3564 4.84779 17.3564 19.851 14.3564 27.351C13.1565 30.351 4.85645 45.3478 13.3564 49.3478C13.3564 49.3478 8.85645 48.3478 8.85645 43.3478C8.85644 38.3478 16.8564 16.8478 16.8564 16.8478C17.8564 11.3478 25.1586 4.84779 28.3564 4.84779H242.356L230.486 7.3037C228.738 7.66542 226.956 7.84314 225.171 7.83394Z" fill="#FBF3CC" stroke="#FBF3CC" stroke-width="1.27915"/>
<path d="M42.3564 17.8478C42.3564 24.7513 36.76 30.3478 29.8564 30.3478C22.9529 30.3478 17.3564 24.7513 17.3564 17.8478C19.8564 10.8478 24.2122 8.90911 29.8564 5.34778C36.76 5.34778 42.3564 10.9442 42.3564 17.8478Z" fill="#FBF3CC"/>
<path d="M83.3569 26.7666C84.0163 29.0724 83.4446 31.5107 82.6397 33.7698C81.1278 38.0133 80.758 37.2603 70.8564 36.8478C63.0428 37.2819 60.5054 38.0928 58.6634 33.0641C58.0166 31.2983 57.7563 29.374 58.161 27.5376C59.4454 21.7088 64.6416 17.3478 70.8564 17.3478C76.794 17.3478 81.8019 21.3284 83.3569 26.7666Z" fill="#FBF3CC"/>
<path d="M128.886 12.3478C128.886 19.5275 123.066 25.3478 115.886 25.3478C108.706 25.3478 102.886 19.5275 102.886 12.3478C102.886 5.16808 108.706 4.84778 115.886 4.84778C123.066 4.84778 128.886 5.16808 128.886 12.3478Z" fill="#FBF3CC"/>
<path d="M181.856 29.8478C182.856 38.3478 177.349 36.4939 168.856 36.8478C156.856 37.3478 155.856 37.0275 155.856 29.8478C155.856 22.6681 161.677 16.8478 168.856 16.8478C176.036 16.8478 181.856 22.6681 181.856 29.8478Z" fill="#FBF3CC"/>
<path d="M228.856 17.8478C228.856 25.0275 223.036 30.8478 215.856 30.8478C208.677 30.8478 202.856 25.0275 202.856 17.8478C202.856 10.6681 208.677 4.84778 215.856 4.84778C223.036 4.84778 228.856 10.6681 228.856 17.8478Z" fill="#FBF3CC"/>
<path d="M258.856 26.309C261.513 35.331 258.655 37.809 252.856 37.809C247.057 37.809 242.356 33.108 242.356 27.309C242.356 21.51 247.057 16.809 252.856 16.809C258.154 16.809 256.365 17.8478 258.856 26.309Z" fill="#FBF3CC"/>
</svg>
