<svg width="259" height="118" viewBox="0 0 259 118" fill="none" xmlns="http://www.w3.org/2000/svg">
<path d="M46.7917 105.677C37.0702 106.189 31.2287 96.9364 29.5231 92.2462L4.45925 33.3751C2.79154 31.5046 2.12048 29.2354 2.02132 27.6488V12.299C1.50966 3.0891 10.3358 1.63939 14.8129 2.06577H245.7C254.91 2.57744 256.786 8.67474 256.573 11.6594V27.0093C256.602 27.5282 256.601 28.0212 256.573 28.4893C256.427 30.9219 255.547 32.6842 254.277 33.9398L229.711 92.2462C226.513 101.2 217.985 105.038 213.082 105.677H207.326C203.744 114.887 195.387 115.911 191.336 115.91C180.591 116.934 177.052 109.941 175.986 105.677H79.4102C79.4102 108.875 73.9098 115.399 64.6999 115.91C55.49 116.422 51.0556 109.302 49.9896 105.677H46.7917Z" fill="#FD9475"/>
<path d="M2.02132 27.6488V12.299C1.50966 3.0891 10.3358 1.63939 14.8129 2.06577H245.7C254.91 2.57744 256.786 8.67474 256.573 11.6594V27.0093C256.602 27.5282 256.601 28.0212 256.573 28.4893M2.02132 27.6488C2.23451 31.0599 5.09129 37.6263 14.8129 36.6029H243.782C248.006 37.2065 256.104 36.3292 256.573 28.4893M2.02132 27.6488L29.5231 92.2462C31.2287 96.9364 37.0702 106.189 46.7917 105.677H49.9896M49.9896 105.677C51.0556 109.302 55.49 116.422 64.6999 115.91C73.9098 115.399 79.4102 108.875 79.4102 105.677M49.9896 105.677H79.4102M79.4102 105.677H175.986M175.986 105.677C177.052 109.941 180.591 116.934 191.336 115.91C195.387 115.911 203.744 114.887 207.326 105.677M175.986 105.677H207.326M207.326 105.677H213.082C217.985 105.038 226.513 101.2 229.711 92.2462L256.573 28.4893" stroke="black" stroke-width="3.83746" stroke-linecap="round"/>
<path d="M30.3056 88.0027L15.3883 52.3584H18.3883L27.3883 73.8584C32.0815 85.8584 37.8883 99.3584 46.8883 103.358C40.7955 103.358 38.0025 101.049 34.5918 96.1007C32.8543 93.5801 31.4875 90.8267 30.3056 88.0027Z" fill="#FBF3CC" stroke="#FBF3CC" stroke-width="1.27915"/>
<path d="M204.664 51.569H14.8883L9.38831 38.5217H249.888L229.388 85.8584C225.388 98.3584 218.562 102.236 214.285 103.759H181.573C196.271 97.9088 200.146 76.517 204.615 51.8421L204.664 51.569Z" fill="#E5686C" stroke="#E5686C" stroke-width="1.27915"/>
<path d="M6.49834 12.9386L6.49841 32.1259C5.21925 31.4863 4.57956 29.5676 4.57959 25.0906V9.74071C4.57959 7.1824 7.13792 4.4958 9.69622 3.98451H214.361L202.337 6.5985C200.551 6.98665 198.729 7.1824 196.902 7.1824H19.2899C5.85876 6.7353 6.49837 10.3803 6.49834 12.9386Z" fill="#FBF3CC" stroke="#FBF3CC" stroke-width="1.27915"/>
<path d="M193.895 34.6842C220.117 28.2885 216.28 19.974 214.732 3.98452H248.163C250.735 3.98452 255.235 7.90364 254.592 13.1291V30.2072C253.953 34.0447 250.817 34.6842 248.163 34.6842H193.895Z" fill="#E5686C" stroke="#E5686C" stroke-width="1.27915"/>
<path d="M19.2899 20.1216C19.2899 16.861 21.9331 14.2178 25.1937 14.2178H28.736C31.9966 14.2178 34.6398 16.861 34.6398 20.1216C34.6398 23.3821 31.9966 26.0253 28.736 26.0253H25.1937C21.9331 26.0253 19.2899 23.3821 19.2899 20.1216Z" fill="#FBF3CC"/>
<circle cx="49.9897" cy="20.6135" r="3.83746" fill="#FBF3CC"/>
</svg>
